<?xml version="1.0" encoding="UTF-8" standalone="no"?>
<!DOCTYPE svg PUBLIC "-//W3C//DTD SVG 1.1//EN" "http://www.w3.org/Graphics/SVG/1.1/DTD/svg11.dtd">
<svg width="100%" height="100%" viewBox="0 0 473 473" version="1.1" xmlns="http://www.w3.org/2000/svg" xmlns:xlink="http://www.w3.org/1999/xlink" xml:space="preserve" xmlns:serif="http://www.serif.com/" style="fill-rule:evenodd;clip-rule:evenodd;">
    <g id="mtt-logo" transform="matrix(36.9415,0,0,36.9415,20233.2,-19814.6)">
        <g id="g914" transform="matrix(1,0,0,1,-4.66222,-2.21095)">
            <path id="path912" d="M-533.565,547.876L-535.616,547.876L-535.616,543.081L-537.099,545.21L-538.522,545.21L-540.005,543.081L-540.005,547.876L-541.949,547.876L-541.949,539.878L-539.553,539.878L-537.754,542.545L-535.96,539.878L-533.565,539.878L-533.565,547.876Z" style="fill:white;fill-rule:nonzero;stroke:rgb(238,53,43);stroke-width:0.34px;"/>
        </g>
        <g id="g910" transform="matrix(1,0,0,1,-3.92523,-1.47397)">
            <path id="path908" d="M-533.565,547.876L-535.616,547.876L-535.616,543.081L-537.099,545.21L-538.522,545.21L-540.005,543.081L-540.005,547.876L-541.949,547.876L-541.949,539.878L-539.553,539.878L-537.754,542.545L-535.96,539.878L-533.565,539.878L-533.565,547.876Z" style="fill:rgb(242,117,114);fill-rule:nonzero;stroke:rgb(238,53,43);stroke-width:0.34px;"/>
        </g>
        <g id="g906" transform="matrix(1,0,0,1,-3.18825,-0.736985)">
            <path id="path904" d="M-533.565,547.876L-535.616,547.876L-535.616,543.081L-537.099,545.21L-538.522,545.21L-540.005,543.081L-540.005,547.876L-541.949,547.876L-541.949,539.878L-539.553,539.878L-537.754,542.545L-535.96,539.878L-533.565,539.878L-533.565,547.876Z" style="fill:rgb(242,117,114);fill-rule:nonzero;stroke:rgb(17,15,13);stroke-width:0.34px;"/>
        </g>
        <g id="text861" transform="matrix(1,0,0,1,-2.45126,0)">
            <path id="path863" d="M-533.565,547.876L-535.616,547.876L-535.616,543.081L-537.099,545.21L-538.522,545.21L-540.005,543.081L-540.005,547.876L-541.949,547.876L-541.949,539.878L-539.553,539.878L-537.754,542.545L-535.96,539.878L-533.565,539.878L-533.565,547.876Z" style="fill:rgb(238,53,43);fill-rule:nonzero;stroke:rgb(17,15,13);stroke-width:0.34px;"/>
        </g>
    </g>
</svg>
