<?xml version="1.0" encoding="UTF-8" standalone="no"?>
<!DOCTYPE svg PUBLIC "-//W3C//DTD SVG 1.1//EN" "http://www.w3.org/Graphics/SVG/1.1/DTD/svg11.dtd">
<svg width="100%" height="100%" viewBox="0 0 532 544" version="1.1" xmlns="http://www.w3.org/2000/svg" xmlns:xlink="http://www.w3.org/1999/xlink" xml:space="preserve" xmlns:serif="http://www.serif.com/" style="fill-rule:evenodd;clip-rule:evenodd;">
    <g transform="matrix(1,0,0,1,82.648,146.033)">
        <g transform="matrix(100,0,0,100,-45,370.7)">
            <path d="M0.104,-0.498L0.226,-0.498L0.211,-0.416L0.307,-0.498L0.429,-0.498L0.485,-0.429L0.565,-0.498L0.734,-0.498L0.829,-0.382L0.761,-0L0.629,-0L0.691,-0.351L0.663,-0.386L0.58,-0.386L0.518,-0.333L0.459,-0L0.331,-0L0.393,-0.353L0.367,-0.386L0.311,-0.386L0.199,-0.29L0.148,-0L0.016,-0L0.104,-0.498Z" style="fill-rule:nonzero;"/>
        </g>
        <g transform="matrix(100,0,0,100,41.1,370.7)">
            <path d="M0.026,-0.11L0.077,-0.402L0.19,-0.498L0.47,-0.498L0.562,-0.386L0.53,-0.205L0.175,-0.205L0.164,-0.141L0.19,-0.108L0.352,-0.108L0.388,-0.139L0.392,-0.165L0.522,-0.165L0.509,-0.09L0.404,-0L0.116,-0L0.026,-0.11ZM0.414,-0.297L0.425,-0.355L0.397,-0.39L0.242,-0.39L0.202,-0.355L0.191,-0.297L0.414,-0.297Z" style="fill-rule:nonzero;"/>
        </g>
        <g transform="matrix(100,0,0,100,99.4,370.7)">
            <path d="M0.08,-0.11L0.129,-0.387L0.039,-0.387L0.059,-0.498L0.151,-0.498L0.179,-0.66L0.309,-0.66L0.281,-0.498L0.433,-0.498L0.413,-0.386L0.261,-0.386L0.218,-0.145L0.247,-0.112L0.365,-0.112L0.345,-0L0.172,-0L0.08,-0.11Z" style="fill-rule:nonzero;"/>
        </g>
        <g transform="matrix(100,0,0,100,140.8,370.7)">
            <path d="M0.019,-0.1L0.038,-0.212L0.139,-0.298L0.398,-0.298L0.408,-0.361L0.383,-0.392L0.234,-0.392L0.198,-0.361L0.193,-0.333L0.063,-0.333L0.076,-0.398L0.192,-0.498L0.448,-0.498L0.543,-0.382L0.476,-0L0.357,-0L0.369,-0.071L0.283,-0L0.101,-0L0.019,-0.1ZM0.292,-0.102L0.376,-0.171L0.382,-0.204L0.194,-0.204L0.162,-0.177L0.153,-0.127L0.174,-0.102L0.292,-0.102Z" style="fill-rule:nonzero;"/>
        </g>
        <g transform="matrix(100,0,0,100,197.3,370.7)">
            <path d="M0.08,-0.11L0.129,-0.387L0.039,-0.387L0.059,-0.498L0.151,-0.498L0.179,-0.66L0.309,-0.66L0.281,-0.498L0.433,-0.498L0.413,-0.386L0.261,-0.386L0.218,-0.145L0.247,-0.112L0.365,-0.112L0.345,-0L0.172,-0L0.08,-0.11Z" style="fill-rule:nonzero;"/>
        </g>
        <g transform="matrix(100,0,0,100,238.7,370.7)">
            <path d="M0.104,-0.498L0.226,-0.498L0.211,-0.415L0.306,-0.498L0.448,-0.498L0.428,-0.386L0.317,-0.386L0.197,-0.282L0.148,-0L0.016,-0L0.104,-0.498Z" style="fill-rule:nonzero;"/>
        </g>
        <g transform="matrix(100,0,0,100,277.1,370.7)">
            <path d="M0.019,-0.1L0.038,-0.212L0.139,-0.298L0.398,-0.298L0.408,-0.361L0.383,-0.392L0.234,-0.392L0.198,-0.361L0.193,-0.333L0.063,-0.333L0.076,-0.398L0.192,-0.498L0.448,-0.498L0.543,-0.382L0.476,-0L0.357,-0L0.369,-0.071L0.283,-0L0.101,-0L0.019,-0.1ZM0.292,-0.102L0.376,-0.171L0.382,-0.204L0.194,-0.204L0.162,-0.177L0.153,-0.127L0.174,-0.102L0.292,-0.102Z" style="fill-rule:nonzero;"/>
        </g>
        <g transform="matrix(100,0,0,100,334.6,370.7)">
            <path d="M0.118,-0.602L0.129,-0.666L0.184,-0.712L0.253,-0.712L0.29,-0.666L0.279,-0.6L0.227,-0.556L0.156,-0.556L0.118,-0.602ZM0.115,-0.498L0.247,-0.498L0.159,-0L0.027,-0L0.115,-0.498Z" style="fill-rule:nonzero;"/>
        </g>
        <g transform="matrix(100,0,0,100,361.8,370.7)">
            <path d="M0.104,-0.498L0.226,-0.498L0.211,-0.415L0.309,-0.498L0.462,-0.498L0.56,-0.379L0.493,-0L0.361,-0L0.423,-0.351L0.395,-0.386L0.315,-0.386L0.198,-0.286L0.148,-0L0.016,-0L0.104,-0.498Z" style="fill-rule:nonzero;"/>
        </g>
    </g>
    <g id="mtt-logo" transform="matrix(34.4876,0,0,34.4876,18935.2,-18494.9)">
        <g id="g914" transform="matrix(1,0,0,1,-4.66222,-2.21095)">
            <path id="path912" d="M-533.565,547.876L-535.616,547.876L-535.616,543.081L-537.099,545.21L-538.522,545.21L-540.005,543.081L-540.005,547.876L-541.949,547.876L-541.949,539.878L-539.553,539.878L-537.754,542.545L-535.96,539.878L-533.565,539.878L-533.565,547.876Z" style="fill:white;fill-rule:nonzero;stroke:rgb(238,53,43);stroke-width:0.34px;"/>
        </g>
        <g id="g910" transform="matrix(1,0,0,1,-3.92523,-1.47397)">
            <path id="path908" d="M-533.565,547.876L-535.616,547.876L-535.616,543.081L-537.099,545.21L-538.522,545.21L-540.005,543.081L-540.005,547.876L-541.949,547.876L-541.949,539.878L-539.553,539.878L-537.754,542.545L-535.96,539.878L-533.565,539.878L-533.565,547.876Z" style="fill:rgb(242,117,114);fill-rule:nonzero;stroke:rgb(238,53,43);stroke-width:0.34px;"/>
        </g>
        <g id="g906" transform="matrix(1,0,0,1,-3.18825,-0.736985)">
            <path id="path904" d="M-533.565,547.876L-535.616,547.876L-535.616,543.081L-537.099,545.21L-538.522,545.21L-540.005,543.081L-540.005,547.876L-541.949,547.876L-541.949,539.878L-539.553,539.878L-537.754,542.545L-535.96,539.878L-533.565,539.878L-533.565,547.876Z" style="fill:rgb(242,117,114);fill-rule:nonzero;stroke:rgb(17,15,13);stroke-width:0.34px;"/>
        </g>
        <g id="text861" transform="matrix(1,0,0,1,-2.45126,0)">
            <path id="path863" d="M-533.565,547.876L-535.616,547.876L-535.616,543.081L-537.099,545.21L-538.522,545.21L-540.005,543.081L-540.005,547.876L-541.949,547.876L-541.949,539.878L-539.553,539.878L-537.754,542.545L-535.96,539.878L-533.565,539.878L-533.565,547.876Z" style="fill:rgb(238,53,43);fill-rule:nonzero;stroke:rgb(17,15,13);stroke-width:0.34px;"/>
        </g>
    </g>
</svg>
