<?xml version="1.0" encoding="UTF-8" standalone="no"?>
<!DOCTYPE svg PUBLIC "-//W3C//DTD SVG 1.1//EN" "http://www.w3.org/Graphics/SVG/1.1/DTD/svg11.dtd">
<svg width="100%" height="100%" viewBox="0 0 1182 1182" version="1.1" xmlns="http://www.w3.org/2000/svg" xmlns:xlink="http://www.w3.org/1999/xlink" xml:space="preserve" xmlns:serif="http://www.serif.com/" style="fill-rule:evenodd;clip-rule:evenodd;stroke-linejoin:bevel;">
    <g transform="matrix(1,0,0,1,-359.229,951.487)">
        <g>
            <g transform="matrix(1,0,0,1,479.572,165.767)">
                <path d="M14.583,-103.75L33.125,-103.75L33.125,-84.792L52.083,-103.75L77.292,-103.75L92.917,-88.125L108.333,-103.75L142.291,-103.75L162.5,-83.542L162.5,0L143.125,0L143.125,-77.5L133.75,-86.875L112.708,-86.875L99.167,-73.333L99.167,0L80.417,0L80.417,-77.708L71.25,-86.875L55.417,-86.875L33.958,-65.417L33.958,0L14.583,0L14.583,-103.75Z" style="fill-rule:nonzero;"/>
                <path d="M188.541,-19.792L188.541,-83.75L208.541,-103.75L262.916,-103.75L282.916,-83.75L282.916,-45.833L207.916,-45.833L207.916,-25.833L217.083,-16.667L254.375,-16.667L263.541,-25.625L263.541,-32.708L282.708,-32.708L282.708,-19.792L263.125,0L208.333,0L188.541,-19.792ZM263.541,-61.042L263.541,-77.917L254.166,-87.083L217.291,-87.083L207.916,-77.917L207.916,-61.042L263.541,-61.042Z" style="fill-rule:nonzero;"/>
                <path d="M318.333,-19.792L318.333,-87.083L299.583,-87.083L299.583,-103.75L318.749,-103.75L318.749,-137.5L337.708,-137.5L337.708,-103.75L369.999,-103.75L369.999,-86.875L337.708,-86.875L337.708,-26.042L347.083,-16.875L369.999,-16.875L369.999,0L338.333,0L318.333,-19.792Z" style="fill-rule:nonzero;"/>
                <path d="M388.749,-17.708L388.749,-43.333L406.458,-61.042L461.041,-61.042L461.041,-78.542L451.874,-87.5L417.916,-87.5L408.958,-78.542L408.958,-70.833L389.583,-70.833L389.583,-83.542L409.791,-103.75L459.999,-103.75L480.208,-83.542L480.208,0L462.083,0L462.083,-17.083L444.166,0L406.458,0L388.749,-17.708ZM441.458,-16.042L461.041,-34.792L461.041,-45.625L415.416,-45.625L408.124,-38.333L408.124,-23.125L415.416,-16.042L441.458,-16.042Z" style="fill-rule:nonzero;"/>
            </g>
            <g transform="matrix(1,0,0,1,971.238,165.767)">
                <path d="M23.958,-19.792L23.958,-87.083L5.208,-87.083L5.208,-103.75L24.375,-103.75L24.375,-137.5L43.333,-137.5L43.333,-103.75L75.625,-103.75L75.625,-86.875L43.333,-86.875L43.333,-26.042L52.708,-16.875L75.625,-16.875L75.625,0L43.958,0L23.958,-19.792Z" style="fill-rule:nonzero;"/>
                <path d="M97.495,-103.75L116.037,-103.75L116.037,-85.625L133.954,-103.75L161.662,-103.75L161.662,-86.875L138.329,-86.875L116.87,-65.208L116.87,0L97.495,0L97.495,-103.75Z" style="fill-rule:nonzero;"/>
                <path d="M171.04,-17.708L171.04,-43.333L188.749,-61.042L243.332,-61.042L243.332,-78.542L234.165,-87.5L200.207,-87.5L191.249,-78.542L191.249,-70.833L171.874,-70.833L171.874,-83.542L192.082,-103.75L242.29,-103.75L262.499,-83.542L262.499,0L244.374,0L244.374,-17.083L226.457,0L188.749,0L171.04,-17.708ZM223.749,-16.042L243.332,-34.792L243.332,-45.625L197.707,-45.625L190.415,-38.333L190.415,-23.125L197.707,-16.042L223.749,-16.042Z" style="fill-rule:nonzero;"/>
                <path d="M289.582,-126.875L289.582,-137.291L296.873,-144.791L307.915,-144.791L315.207,-137.291L315.207,-126.875L307.915,-119.375L296.873,-119.375L289.582,-126.875ZM292.707,-103.75L312.082,-103.75L312.082,0L292.707,0L292.707,-103.75Z" style="fill-rule:nonzero;"/>
                <path d="M343.332,-103.75L361.873,-103.75L361.873,-83.333L382.29,-103.75L414.79,-103.75L435.207,-83.333L435.207,0L415.832,0L415.832,-77.5L406.457,-86.875L386.665,-86.875L362.707,-62.917L362.707,0L343.332,0L343.332,-103.75Z" style="fill-rule:nonzero;"/>
            </g>
        </g>
    </g>
    <g transform="matrix(0.9,0,0,0.9,32.4803,-1.45147)">
        <g transform="matrix(1.66667,0,0,1.66667,-413.386,-336.258)">
            <g id="path1" transform="matrix(4.66308,0,0,5.20833,-372.047,-1535.43)">
                <path d="M151.973,368.504L151.973,425.197L212.762,453.543L273.551,425.197L273.551,368.504L212.762,340.157L151.973,368.504Z" style="fill:white;fill-rule:nonzero;"/>
            </g>
            <g id="path12" transform="matrix(4.66308,1.33597e-07,1.49218e-07,4.16667,-372.047,-1181.1)">
                <path d="M212.762,340.157L212.762,406.373" style="fill:none;fill-rule:nonzero;stroke:rgb(153,153,153);stroke-width:1.52px;"/>
            </g>
            <g id="path11" serif:id="path1" transform="matrix(4.66308,0,0,5.20833,-372.047,-1535.43)">
                <path d="M151.973,368.504L151.973,425.197L212.762,453.543L273.551,425.197L273.551,368.504L212.762,340.157L151.973,368.504Z" style="fill:rgb(253,246,174);fill-opacity:0.5;fill-rule:nonzero;stroke:black;stroke-width:3.12px;stroke-linejoin:round;"/>
            </g>
        </g>
        <g transform="matrix(1.66667,0,0,1.66667,-413.386,-336.258)">
            <g id="path7" transform="matrix(4.66308,0,0,5.20833,-372.047,-1557.12)">
                <path d="M151.973,340.157L136.776,347.244L212.762,382.677L288.749,347.244L273.551,340.157L212.762,368.504L151.973,340.157" style="fill:rgb(152,108,224);fill-rule:nonzero;stroke:black;stroke-width:1.52px;stroke-linecap:round;stroke-linejoin:round;"/>
            </g>
            <g id="path46" transform="matrix(4.66308,0,0,5.20833,-442.913,-1520.21)">
                <path d="M212.762,368.504L227.959,361.417L212.762,368.504Z" style="fill:none;fill-rule:nonzero;stroke:black;stroke-width:0.61px;stroke-linejoin:miter;"/>
            </g>
            <g id="path461" serif:id="path46" transform="matrix(4.66308,0,0,5.20833,-513.779,-1557.12)">
                <path d="M212.762,368.504L227.959,361.417L212.762,368.504Z" style="fill:none;fill-rule:nonzero;stroke:black;stroke-width:0.61px;stroke-linejoin:miter;"/>
            </g>
            <g id="path462" serif:id="path46" transform="matrix(4.66308,0,0,5.20833,-584.646,-1594.03)">
                <path d="M212.762,368.504L227.959,361.417L212.762,368.504Z" style="fill:none;fill-rule:nonzero;stroke:black;stroke-width:0.61px;stroke-linejoin:miter;"/>
            </g>
            <g id="path463" serif:id="path46" transform="matrix(4.66308,0,0,5.20833,-655.512,-1630.94)">
                <path d="M212.762,368.504L227.959,361.417L212.762,368.504Z" style="fill:none;fill-rule:nonzero;stroke:black;stroke-width:0.61px;stroke-linejoin:miter;"/>
            </g>
            <g id="path464" serif:id="path46" transform="matrix(4.66308,0,0,5.20833,-442.913,-1520.21)">
                <path d="M243.157,368.504L227.959,361.417L243.157,368.504Z" style="fill:none;fill-rule:nonzero;stroke:black;stroke-width:0.61px;stroke-linejoin:miter;"/>
            </g>
            <g id="path465" serif:id="path46" transform="matrix(4.66308,0,0,5.20833,-372.047,-1557.12)">
                <path d="M243.157,368.504L227.959,361.417L243.157,368.504Z" style="fill:none;fill-rule:nonzero;stroke:black;stroke-width:0.61px;stroke-linejoin:miter;"/>
            </g>
            <g id="path466" serif:id="path46" transform="matrix(4.66308,0,0,5.20833,-301.181,-1594.03)">
                <path d="M243.157,368.504L227.959,361.417L243.157,368.504Z" style="fill:none;fill-rule:nonzero;stroke:black;stroke-width:0.61px;stroke-linejoin:miter;"/>
            </g>
            <g id="path467" serif:id="path46" transform="matrix(4.66308,0,0,5.20833,-230.315,-1630.94)">
                <path d="M243.157,368.504L227.959,361.417L243.157,368.504Z" style="fill:none;fill-rule:nonzero;stroke:black;stroke-width:0.61px;stroke-linejoin:miter;"/>
            </g>
        </g>
        <g transform="matrix(1.66667,0,0,1.66667,-413.386,-336.258)">
            <g id="path8" transform="matrix(4.66308,0,0,5.20833,-372.047,-1557.12)">
                <path d="M151.973,439.37L167.17,432.283L167.17,378.337L151.973,371.534L151.973,439.37Z" style="fill:rgb(66,115,215);fill-rule:nonzero;stroke:black;stroke-width:1.52px;stroke-linecap:round;stroke-linejoin:round;"/>
            </g>
            <g id="path38" transform="matrix(4.66308,0,0,5.20833,-372.047,-1468.54)">
                <path d="M167.17,398.268L151.973,405.354" style="fill:none;fill-rule:nonzero;stroke:black;stroke-width:0.61px;stroke-linejoin:miter;"/>
            </g>
            <g id="path381" serif:id="path38" transform="matrix(4.66308,0,0,5.20833,-372.047,-1645.7)">
                <path d="M167.17,398.268L151.973,405.354" style="fill:none;fill-rule:nonzero;stroke:black;stroke-width:0.61px;stroke-linejoin:miter;"/>
            </g>
            <g id="path382" serif:id="path38" transform="matrix(4.66308,0,0,5.20833,-372.047,-1557.12)">
                <path d="M167.17,398.268L151.973,405.354" style="fill:none;fill-rule:nonzero;stroke:black;stroke-width:0.61px;stroke-linejoin:miter;"/>
            </g>
        </g>
        <g transform="matrix(1.66667,0,0,1.66667,-413.386,-336.258)">
            <g id="path5" transform="matrix(4.66308,0,0,5.20833,-372.047,-1557.12)">
                <path d="M151.973,439.37L136.776,432.283L136.776,347.244L212.762,382.677L212.762,399.685L151.973,371.339L151.973,439.37Z" style="fill:rgb(224,119,108);fill-rule:nonzero;stroke:black;stroke-width:1.52px;stroke-linecap:round;stroke-linejoin:round;"/>
            </g>
            <g id="path21" transform="matrix(4.66308,0,0,5.20833,-584.646,-1667.45)">
                <path d="M197.565,392.598L182.368,385.512" style="fill:none;fill-rule:nonzero;stroke:black;stroke-width:0.61px;stroke-linejoin:miter;"/>
            </g>
            <g id="path211" serif:id="path21" transform="matrix(4.66308,0,0,5.20833,-584.646,-1578.86)">
                <path d="M197.565,392.598L182.368,385.512" style="fill:none;fill-rule:nonzero;stroke:black;stroke-width:0.61px;stroke-linejoin:miter;"/>
            </g>
            <g id="path212" serif:id="path21" transform="matrix(4.66308,0,0,5.20833,-584.646,-1490.28)">
                <path d="M197.565,392.598L182.368,385.512" style="fill:none;fill-rule:nonzero;stroke:black;stroke-width:0.61px;stroke-linejoin:miter;"/>
            </g>
            <g id="path213" serif:id="path21" transform="matrix(4.66308,0,0,5.20833,-584.646,-1401.7)">
                <path d="M197.565,392.598L182.368,385.512" style="fill:none;fill-rule:nonzero;stroke:black;stroke-width:0.61px;stroke-linejoin:miter;"/>
            </g>
            <g id="path214" serif:id="path21" transform="matrix(4.66308,0,0,5.20833,-584.646,-1667.45)">
                <path d="M197.565,375.591L197.565,392.598" style="fill:none;fill-rule:nonzero;stroke:black;stroke-width:0.61px;stroke-linejoin:miter;"/>
            </g>
            <g id="path215" serif:id="path21" transform="matrix(4.66308,0,0,5.20833,-513.779,-1630.25)">
                <path d="M197.565,375.591L197.565,392.598" style="fill:none;fill-rule:nonzero;stroke:black;stroke-width:0.61px;stroke-linejoin:miter;"/>
            </g>
            <g id="path216" serif:id="path21" transform="matrix(4.66308,0,0,5.20833,-442.913,-1593.34)">
                <path d="M197.565,375.591L197.565,392.598" style="fill:none;fill-rule:nonzero;stroke:black;stroke-width:0.61px;stroke-linejoin:miter;"/>
            </g>
            <g id="path217" serif:id="path21" transform="matrix(4.66308,0,0,5.20833,-372.047,-1556.43)">
                <path d="M197.565,375.591L197.565,392.598" style="fill:none;fill-rule:nonzero;stroke:black;stroke-width:0.61px;stroke-linejoin:miter;"/>
            </g>
        </g>
        <g transform="matrix(1.66667,0,0,1.66667,-413.386,-336.258)">
            <g id="path6" transform="matrix(4.66308,0,0,5.20833,-372.047,-1557.12)">
                <path d="M288.749,432.283L288.749,347.244L212.762,382.677L212.762,399.685L273.551,371.339L273.551,439.37L288.749,432.283Z" style="fill:rgb(108,146,224);fill-rule:nonzero;stroke:black;stroke-width:1.52px;stroke-linecap:round;stroke-linejoin:round;"/>
            </g>
            <g id="path218" serif:id="path21" transform="matrix(-4.66308,0,0,5.20833,1824.54,-1666.75)">
                <path d="M197.565,392.598L182.368,385.512" style="fill:none;fill-rule:nonzero;stroke:black;stroke-width:0.61px;stroke-linejoin:miter;"/>
            </g>
            <g id="path219" serif:id="path21" transform="matrix(-4.66308,0,0,5.20833,1824.54,-1578.17)">
                <path d="M197.565,392.598L182.368,385.512" style="fill:none;fill-rule:nonzero;stroke:black;stroke-width:0.61px;stroke-linejoin:miter;"/>
            </g>
            <g id="path2110" serif:id="path21" transform="matrix(-4.66308,0,0,5.20833,1824.54,-1489.59)">
                <path d="M197.565,392.598L182.368,385.512" style="fill:none;fill-rule:nonzero;stroke:black;stroke-width:0.61px;stroke-linejoin:miter;"/>
            </g>
            <g id="path2111" serif:id="path21" transform="matrix(-4.66308,0,0,5.20833,1824.54,-1401)">
                <path d="M197.565,392.598L182.368,385.512" style="fill:none;fill-rule:nonzero;stroke:black;stroke-width:0.61px;stroke-linejoin:miter;"/>
            </g>
            <g id="path2112" serif:id="path21" transform="matrix(-4.66308,0,0,5.20833,1824.54,-1666.75)">
                <path d="M197.565,375.591L197.565,392.598" style="fill:none;fill-rule:nonzero;stroke:black;stroke-width:0.61px;stroke-linejoin:miter;"/>
            </g>
            <g id="path2113" serif:id="path21" transform="matrix(-4.66308,0,0,5.20833,1753.68,-1629.55)">
                <path d="M197.565,375.591L197.565,392.598" style="fill:none;fill-rule:nonzero;stroke:black;stroke-width:0.61px;stroke-linejoin:miter;"/>
            </g>
            <g id="path2114" serif:id="path21" transform="matrix(-4.66308,0,0,5.20833,1682.81,-1592.64)">
                <path d="M197.565,375.591L197.565,392.598" style="fill:none;fill-rule:nonzero;stroke:black;stroke-width:0.61px;stroke-linejoin:miter;"/>
            </g>
            <g id="path2115" serif:id="path21" transform="matrix(-4.66308,0,0,5.20833,1611.95,-1555.74)">
                <path d="M197.565,375.591L197.565,392.598" style="fill:none;fill-rule:nonzero;stroke:black;stroke-width:0.61px;stroke-linejoin:miter;"/>
            </g>
        </g>
        <g transform="matrix(0.236872,0,0,0.219611,366.56,230.333)">
            <g transform="matrix(14.1914,0,0,15.3068,-1212.14,-1337.22)">
                <path d="M116.237,257.485L77.714,257.45L61.401,282.835L70.084,291.745L117.865,286.984L116.237,257.485Z" style="fill:white;"/>
            </g>
            <g transform="matrix(14.1914,0,0,15.3068,-1212.14,-1337.22)">
                <path d="M116.237,257.485L77.714,257.45L61.401,282.835L70.084,291.745L117.865,286.984L116.237,257.485Z" style="fill:rgb(253,246,174);fill-opacity:0.5;"/>
            </g>
            <g transform="matrix(4.16667,0,0,4.16667,1484.07,116.153)">
                <path d="M0,0C9.826,8.416 15.466,17.906 18.051,30.613C18.793,40.449 18.793,40.449 17.301,44.926C18.208,44.864 19.116,44.802 20.051,44.738C31.693,44.809 42.957,49.708 51.551,57.426C60.287,66.738 63.642,78.107 63.516,90.578C62.69,103.443 55.643,114.388 46.301,122.926C34.442,131.444 22.703,134.29 8.301,132.926C3.147,132 -1.739,130.579 -6.699,128.926C-7.1,129.688 -7.501,130.449 -7.914,131.234C-14.79,143.724 -23.649,152.781 -37.199,157.801C-47.676,160.565 -59.71,160.335 -69.535,155.703C-73,154.458 -74.954,155.594 -78.215,157.047C-80.028,157.92 -81.841,158.795 -83.652,159.672C-90.343,162.426 -96.476,163.287 -103.637,163.238C-104.423,163.237 -105.209,163.236 -106.019,163.234C-111.763,163.139 -116.407,162.278 -121.699,159.926L-121.699,157.926C-119.288,156.352 -116.869,154.879 -114.387,153.426C-105.028,147.751 -93.679,140.668 -89.699,129.926C-89.342,127.113 -89.445,124.776 -89.699,121.926L-91.699,121.926C-92.04,122.778 -92.04,122.778 -92.387,123.648C-96.838,131.372 -106.607,136.727 -114.699,139.926C-115.689,140.318 -116.679,140.71 -117.699,141.113C-124.441,143.403 -129.713,144.015 -136.769,143.635C-145.146,142.873 -145.146,142.873 -152.504,146.078C-154.459,148.94 -156.055,151.878 -157.699,154.926C-165.511,163.757 -176.011,168.723 -187.699,169.926C-188.916,169.781 -190.133,169.637 -191.387,169.488C-194.706,169.574 -194.706,169.574 -196.332,171.641C-197.491,173.217 -198.632,174.806 -199.758,176.406C-206.065,184.592 -215.48,190.355 -225.699,191.926C-240.671,192.957 -252.765,191.287 -264.547,181.09C-272.402,173.192 -277.596,162.134 -278.012,150.926C-277.843,139.682 -273.297,130.661 -265.629,122.805C-260.854,118.271 -254.675,112.926 -247.699,112.926C-247.769,111.744 -247.769,111.744 -247.84,110.539C-248.303,96.557 -244.459,85.782 -235.387,75.238C-225.876,67.055 -216.338,63.002 -203.699,62.926C-202.024,63.213 -200.353,63.533 -198.699,63.926C-198.595,63.045 -198.49,62.165 -198.383,61.258C-196.382,51.504 -188.523,43.594 -180.699,37.926C-167.051,30.151 -154.798,30.02 -139.699,32.926C-139.287,32.02 -138.874,31.113 -138.449,30.18C-132.202,16.836 -124.518,7.48 -110.563,1.605C-96.816,-3.137 -84.334,-1.741 -71.32,4.563C-70.455,5.012 -69.59,5.462 -68.699,5.926C-68.31,5.49 -67.921,5.054 -67.52,4.605C-49.297,-14.793 -20.873,-16.04 0,0Z" style="fill-rule:nonzero;"/>
            </g>
            <g transform="matrix(4.16667,0,0,4.16667,625.606,990.306)">
                <path d="M0,0C3.75,3.423 5.248,7.217 6.332,12.129C6.287,17.214 5.12,21.561 2.02,25.629C-2.508,29.84 -5.633,30.212 -11.668,30.129C-11.559,38.076 -11.446,46.024 -11.329,53.971C-11.274,57.664 -11.221,61.357 -11.171,65.05C-10.933,82.425 -10.564,99.773 -9.668,117.129C-8.497,117.396 -7.326,117.664 -6.12,117.939C-1.784,118.93 2.55,119.924 6.885,120.919C8.762,121.35 10.64,121.779 12.519,122.208C15.215,122.824 17.91,123.443 20.605,124.063C21.448,124.254 22.291,124.446 23.159,124.643C29.104,126.015 29.104,126.015 31.332,127.129C31.092,125.512 31.092,125.512 30.848,123.863C29.23,110.822 28.524,95.513 33.332,83.129C33.599,82.413 33.866,81.698 34.141,80.961C37.669,72.853 44.111,65.561 52.23,61.941C61.377,59.545 72.65,59.603 81.23,63.805C90.745,69.8 97.809,78.072 100.332,89.129C102.119,98.115 102.734,107.259 103.457,116.379C103.545,117.48 103.633,118.58 103.723,119.715C104.207,126.2 104.447,132.626 104.332,139.129C105.181,139.194 105.181,139.194 106.047,139.26C113.392,139.899 120.541,141.202 127.77,142.629C128.939,142.854 130.109,143.08 131.314,143.313C139.901,144.985 139.901,144.985 143.332,146.129C143.002,145.139 142.672,144.149 142.332,143.129C142.262,140.556 142.238,138.012 142.27,135.441C142.274,134.74 142.279,134.038 142.283,133.314C142.295,131.586 142.313,129.857 142.332,128.129C141.391,127.936 140.45,127.742 139.48,127.543C138.235,127.283 136.99,127.022 135.707,126.754C134.477,126.499 133.248,126.243 131.98,125.98C128.674,125.209 125.531,124.261 122.332,123.129C123.178,121.936 124.035,120.75 124.895,119.566C125.37,118.905 125.846,118.244 126.336,117.563C136.646,104.992 151.885,92.572 168.332,90.129C219.848,86.355 272.292,107.635 319.709,125.162C323.466,126.547 327.228,127.917 330.992,129.285C343.769,133.932 356.502,138.686 369.207,143.524C396.74,154.003 424.348,164.288 451.957,174.566C452.844,174.897 453.732,175.227 454.646,175.568C463.508,178.866 472.375,182.153 481.258,185.395C482.296,185.774 482.296,185.774 483.356,186.161C486.503,187.309 489.651,188.454 492.801,189.594C493.893,189.991 494.985,190.388 496.109,190.797C497.03,191.13 497.95,191.463 498.898,191.805C504.086,193.805 509.2,195.991 514.332,198.129L514.332,384.129C486.332,386.129 486.332,386.129 476.332,386.129C476.415,387.593 476.497,389.058 476.582,390.566C476.566,403.02 472.476,414.932 467.332,426.129C480.418,425.492 493.381,424.105 506.395,422.629C519.031,421.198 531.629,419.801 544.332,419.129C542.767,422.259 540.268,422.449 537.02,423.629C536.326,423.882 535.632,424.135 534.917,424.395C533.312,424.978 531.706,425.557 530.098,426.134C527.045,427.232 523.999,428.348 520.953,429.465C505.206,435.199 489.385,440.313 473.332,445.129C482.572,445.459 491.812,445.789 501.332,446.129C496.634,449.261 491.32,450.197 485.895,451.629C485.261,451.798 484.628,451.967 483.976,452.141C469.022,456.12 453.922,459.478 438.811,462.803C437.881,463.009 436.951,463.216 435.992,463.428C434.238,463.818 432.483,464.202 430.727,464.582C429.55,464.844 429.55,464.844 428.349,465.111C427.667,465.26 426.985,465.409 426.282,465.563C424.14,466.185 422.294,467.078 420.332,468.129C421.446,469.469 421.446,469.469 424.291,469.242C426.232,469.235 426.232,469.235 428.211,469.227C428.898,469.225 429.584,469.224 430.292,469.222C432.493,469.217 434.694,469.204 436.895,469.191C438.383,469.186 439.872,469.182 441.361,469.178C445.018,469.167 448.675,469.149 452.332,469.129L452.332,471.129C438.366,475.548 424.381,478.584 409.641,477.996C395.322,477.427 382.598,480.535 368.801,484.225C363.34,485.648 357.839,486.895 352.332,488.129C353.001,488.209 353.671,488.29 354.361,488.373C357.456,488.746 360.55,489.125 363.645,489.504C364.697,489.63 365.75,489.757 366.834,489.887C372.092,490.534 377.335,491.241 382.563,492.105C383.457,492.253 384.352,492.401 385.274,492.553C385.953,492.743 386.632,492.933 387.332,493.129C387.662,493.789 387.992,494.449 388.332,495.129C385.126,496.592 381.917,498.049 378.707,499.504C377.803,499.916 376.9,500.329 375.969,500.754C375.086,501.154 374.203,501.553 373.293,501.965C372.486,502.331 371.68,502.698 370.849,503.076C356.472,509.092 341.497,505.132 326.688,502.542C316.06,500.7 306.966,499.517 296.332,502.129C294.845,502.47 293.357,502.81 291.869,503.149C286.905,504.297 281.963,505.522 277.02,506.754C275.296,507.179 273.573,507.603 271.85,508.027C267.676,509.055 263.503,510.09 259.332,511.129C269.925,512.974 280.56,514.466 291.208,515.952C299.951,517.174 308.663,518.439 317.332,520.129L317.332,522.129C313.396,523.715 309.458,525.297 305.52,526.879C304.419,527.322 303.319,527.766 302.186,528.223C299.97,529.111 297.751,529.991 295.529,530.861C293.521,531.658 291.524,532.483 289.545,533.35C276.409,538.813 262.774,535.686 249.27,533.254C247.709,532.981 246.149,532.709 244.588,532.438C243.443,532.238 243.443,532.238 242.274,532.035C240.753,531.77 239.232,531.506 237.71,531.242C236.978,531.115 236.246,530.988 235.492,530.856C234.784,530.734 234.076,530.611 233.347,530.484C231.522,530.162 229.701,529.826 227.879,529.487C208.8,526.153 193.724,529.891 175.332,535.129C172.9,535.805 170.468,536.48 168.035,537.152C162.128,538.79 156.228,540.45 150.332,542.129C150.928,542.193 151.524,542.256 152.138,542.322C168.11,544.071 183.653,546.843 199.332,550.316C201.487,550.785 203.642,551.254 205.797,551.721C210.978,552.846 216.156,553.982 221.332,555.129C218.054,557.859 214.714,559.357 210.766,560.941C210.131,561.196 209.497,561.451 208.844,561.714C207.503,562.252 206.161,562.786 204.817,563.317C202.797,564.118 200.782,564.931 198.768,565.746C181.262,572.771 170.622,573.231 152.18,569.223C150.83,568.934 149.481,568.647 148.131,568.36C143.168,567.303 138.206,566.235 133.245,565.166C129.039,564.259 124.831,563.358 120.622,562.463C118.672,562.047 116.723,561.623 114.775,561.199C101.227,558.041 101.227,558.041 87.582,559.211C86.578,559.479 85.573,559.747 84.538,560.023C82.951,560.478 82.951,560.478 81.332,560.941C80.204,561.249 79.075,561.556 77.913,561.873C74.754,562.741 71.601,563.628 68.45,564.526C66.19,565.169 63.928,565.808 61.667,566.446C51.544,569.304 41.434,572.201 31.332,575.129C36.578,577.002 41.898,578.286 47.313,579.555C48.28,579.784 49.247,580.014 50.244,580.25C53.335,580.983 56.427,581.713 59.52,582.441C71.116,585.176 82.713,587.913 94.258,590.859C95.064,591.059 95.87,591.259 96.7,591.465C98.595,591.957 100.467,592.534 102.332,593.129C102.662,593.789 102.992,594.449 103.332,595.129C95.444,598.082 87.547,601.01 79.64,603.911C76.962,604.897 74.291,605.898 71.621,606.906C69.776,607.573 69.776,607.573 67.895,608.254C66.885,608.628 65.876,609.002 64.836,609.387C55.44,611.377 46.571,609.874 37.418,607.461C35.776,607.046 35.776,607.046 34.101,606.622C30.633,605.742 27.17,604.842 23.707,603.941C21.409,603.356 19.111,602.772 16.813,602.189C-1.07,597.632 -1.07,597.632 -8.011,595.552C-8.821,595.313 -9.63,595.073 -10.465,594.826C-11.921,594.39 -13.373,593.94 -14.82,593.472C-24.184,590.668 -46.614,571.439 -39.616,569.492C-1.261,558.832 5.851,557.325 44.332,547.129C45.42,546.841 45.42,546.841 46.529,546.547C107.883,530.285 169.428,514.856 231.296,500.667C240.78,498.491 250.258,496.289 259.734,494.078C260.864,493.815 260.864,493.815 262.016,493.546C265.876,492.646 269.737,491.745 273.597,490.844C293.694,486.155 313.794,481.476 333.906,476.852C335.411,476.505 336.916,476.159 338.421,475.813C350.156,473.114 350.156,473.114 355.597,471.869C375.548,467.332 375.548,467.332 395.332,462.129C367.835,461.658 341.313,466.284 314.332,471.129C313.055,471.358 311.778,471.587 310.462,471.823C227.823,486.671 145.846,504.751 28.933,532.492C24.498,533.578 20.059,534.652 15.621,535.727C5.268,538.237 -5.078,540.776 -15.422,543.328C-17.661,543.881 -19.901,544.433 -22.141,544.984C-54.28,552.903 -107.573,534.389 -109.774,533.968C-112.928,533.366 -127.622,519.919 -130.78,519.337C-131.704,519.156 -200.098,528.39 -200.098,528.39C-200.098,528.39 -223.316,511.987 -219.668,512.129C-220.022,511.725 -220.377,511.322 -220.742,510.906C-222.721,508.65 -224.694,506.389 -226.668,504.129C-227.167,503.561 -227.665,502.992 -228.179,502.407C-232.038,498.006 -235.867,493.58 -239.668,489.129C-240.396,488.281 -241.125,487.433 -241.875,486.559C-245.701,481.846 -245.701,481.846 -245.57,478.977C-244.255,474.826 -242.332,471.063 -240.355,467.191C-239.908,466.307 -239.461,465.422 -239,464.51C-235.371,457.387 -231.57,450.365 -227.714,443.364C-222.75,434.335 -217.923,425.236 -213.105,416.129C-212.708,415.378 -212.311,414.628 -211.901,413.855C-210.759,411.697 -209.617,409.538 -208.477,407.379C-208.136,406.736 -207.796,406.093 -207.446,405.431C-205.471,401.687 -203.547,397.922 -201.668,394.129C-202.875,393.875 -204.081,393.621 -205.324,393.359C-206.939,393.012 -208.553,392.664 -210.168,392.316C-211.355,392.068 -211.355,392.068 -212.566,391.814C-213.353,391.644 -214.139,391.473 -214.949,391.297C-216.018,391.069 -216.018,391.069 -217.107,390.837C-220.703,389.843 -224.175,388.439 -227.668,387.129L-227.668,347.129L-183.668,347.129C-182.183,342.674 -182.183,342.674 -180.668,338.129C-180.021,336.434 -179.355,334.747 -178.659,333.072C-178.296,332.191 -177.932,331.31 -177.558,330.402C-177.177,329.483 -176.795,328.564 -176.402,327.617C-175.587,325.623 -174.771,323.629 -173.957,321.635C-172.684,318.525 -171.408,315.416 -170.118,312.313C-168.866,309.295 -167.633,306.269 -166.402,303.242C-166.013,302.317 -165.623,301.392 -165.222,300.439C-163.291,295.642 -161.984,292.268 -163.668,287.129C-164.981,285.047 -164.981,285.047 -166.73,283.191C-177.799,269.583 -184.584,251.474 -186.668,234.129C-186.778,233.23 -186.887,232.332 -187,231.406C-190.402,199.16 -181.377,166.873 -161.293,141.379C-150.968,129.263 -137.239,118.582 -121.668,114.129L-118.668,114.129C-118.714,113.151 -118.761,112.172 -118.809,111.164C-119.103,100.48 -117.845,92.624 -110.352,84.57C-105.193,80.154 -99.052,79.567 -92.457,79.785C-83.263,80.918 -76.427,86.191 -68.668,91.129C-68.998,70.669 -69.328,50.209 -69.668,29.129C-72.968,28.139 -76.268,27.149 -79.668,26.129C-82.141,24.156 -82.141,24.156 -83.73,22.066C-84.278,21.374 -84.826,20.682 -85.391,19.969C-88.261,15.834 -88.257,12.047 -87.668,7.129C-85.696,1.877 -82.228,-2.675 -77.109,-5.066C-54.28,-12.439 -20.713,-14.526 0,0ZM-144.668,153.129C-145.333,153.785 -145.998,154.441 -146.684,155.117C-163.341,172.638 -168.736,198.722 -168.668,222.129C-167.819,247.419 -158.536,269.66 -140.34,287.398C-127.743,298.306 -111.132,303.891 -94.59,303.469C-75.654,301.828 -60.783,293.582 -47.668,280.129C-47.003,279.473 -46.338,278.817 -45.652,278.141C-28.247,259.834 -23.99,233.879 -24.352,209.676C-25.14,186.867 -34.395,164.205 -50.668,148.129C-51.354,147.421 -52.04,146.714 -52.746,145.984C-63.962,135.122 -78.586,130.208 -93.98,129.691C-114.361,130.215 -130.638,138.738 -144.668,153.129ZM-22.668,138.129C-22.123,138.947 -22.123,138.947 -21.566,139.781C-20.5,141.381 -19.436,142.983 -18.375,144.586C-17.332,146.14 -16.271,147.682 -15.18,149.203C-7.254,160.418 -2.747,172.849 0.757,186.012C1.585,189.06 2.461,192.093 3.332,195.129C11.476,196.567 19.621,198.002 27.767,199.432C31.55,200.096 35.332,200.761 39.114,201.429C42.764,202.074 46.414,202.716 50.065,203.355C51.458,203.599 52.85,203.845 54.242,204.092C56.192,204.437 58.143,204.778 60.095,205.119C61.205,205.315 62.315,205.51 63.459,205.711C66.508,206.225 66.508,206.225 70.332,206.129C68.094,186.925 62.212,164.631 47.332,151.129C41.059,147.89 34.556,146.852 27.645,145.648C26.428,145.431 25.212,145.213 23.958,144.989C21.394,144.532 18.829,144.079 16.263,143.63C12.344,142.943 8.428,142.241 4.512,141.537C2.014,141.094 -0.483,140.652 -2.98,140.211C-4.147,140.002 -5.314,139.792 -6.516,139.577C-11.976,138.629 -17.125,137.862 -22.668,138.129ZM248.268,157.474C244.821,156.627 242.006,155.922 242.686,155.922C242.707,156.48 244.249,210.673 245.268,235.597C245.352,237.642 245.434,239.686 245.516,241.73C245.922,251.884 246.328,262.014 247.332,272.129C253.323,272.683 259.315,273.234 265.307,273.783C267.339,273.969 269.37,274.157 271.402,274.344C274.348,274.617 277.295,274.887 280.242,275.156C281.57,275.28 281.57,275.28 282.924,275.406C290.725,276.115 298.508,276.607 306.332,277.129L306.332,173.129C292.114,168.982 278.01,164.882 263.651,161.328C261.009,160.673 258.37,160.008 255.73,159.342C254.03,158.917 252.33,158.494 250.629,158.07C249.85,157.874 249.071,157.677 248.268,157.474ZM81.332,159.129C81.805,160.721 82.279,162.313 82.754,163.905C83.018,164.791 83.282,165.677 83.554,166.591C84.533,169.784 85.65,172.92 86.77,176.066C90.22,186.096 92.498,196.615 93.879,207.129C94.01,210.004 94.01,210.004 95.332,211.129C97.115,211.488 98.909,211.79 100.706,212.069C101.855,212.249 103.003,212.429 104.186,212.614C105.437,212.806 106.688,212.998 107.977,213.195C109.253,213.394 110.53,213.592 111.845,213.796C114.552,214.217 117.26,214.634 119.968,215.05C123.436,215.582 126.902,216.12 130.369,216.66C133.675,217.175 136.982,217.685 140.289,218.195C141.534,218.389 142.779,218.583 144.061,218.782C145.219,218.959 146.377,219.136 147.57,219.319C148.588,219.475 149.607,219.632 150.656,219.794C153.544,220.212 153.544,220.212 157.332,220.129C155.122,203.729 151.647,183.641 141.332,170.129C135.119,167.892 128.549,167.043 122.055,165.965C120.888,165.768 119.722,165.571 118.52,165.368C114.812,164.743 111.103,164.123 107.395,163.504C104.873,163.08 102.352,162.655 99.83,162.23C93.665,161.192 87.499,160.159 81.332,159.129ZM169.332,174.129C169.997,177.843 170.968,181.429 171.995,185.057C175.497,197.579 177.476,210.274 179.332,223.129C184.187,223.991 189.043,224.845 193.901,225.692C195.551,225.981 197.201,226.272 198.85,226.565C201.23,226.988 203.611,227.403 205.992,227.816C207.086,228.013 207.086,228.013 208.203,228.214C212.648,228.977 216.822,229.253 221.332,229.129C220.857,213.716 218.349,195.86 206.945,184.496C201.695,180.088 195.865,179.042 189.27,177.754C188.124,177.508 186.979,177.261 185.799,177.008C180.332,175.851 174.877,174.821 169.332,174.129ZM17.332,284.129C13.827,291.117 10.323,298.105 6.823,305.096C5.197,308.341 3.571,311.587 1.943,314.831C0.372,317.962 -1.197,321.094 -2.764,324.226C-3.654,326.004 -4.546,327.78 -5.438,329.556C-5.979,330.637 -6.519,331.718 -7.076,332.831C-7.553,333.784 -8.031,334.737 -8.523,335.718C-9.753,338.183 -9.753,338.183 -10.668,341.129C-4.991,342.137 0.756,343.02 6.332,341.129C10.69,337.535 12.775,331.87 15.056,326.839C16.909,322.903 19.03,319.127 21.148,315.328C22.702,312.526 24.234,309.713 25.758,306.894C26.24,306.001 26.723,305.108 27.22,304.188C27.587,303.509 27.954,302.829 28.332,302.129C47.415,301.984 66.476,302.409 85.551,302.871C90.012,302.978 94.474,303.083 98.936,303.188C106.469,303.366 114.003,303.546 121.536,303.728C129.111,303.911 136.686,304.091 144.261,304.269C211.659,305.853 211.659,305.853 240.284,306.708C241.467,306.743 241.467,306.743 242.675,306.779C250.084,307.001 257.492,307.226 264.901,307.461C279.05,307.911 293.175,308.268 307.332,308.129L307.332,298.129C303.947,297.001 301.133,296.867 297.565,296.694C296.871,296.659 296.178,296.624 295.464,296.588C293.131,296.472 290.798,296.363 288.466,296.253C286.792,296.171 285.118,296.088 283.445,296.006C278.865,295.781 274.285,295.561 269.705,295.342C264.826,295.108 259.947,294.869 255.067,294.631C246.784,294.227 238.5,293.826 230.217,293.428C218.87,292.882 207.523,292.331 196.177,291.778C173.934,290.695 151.691,289.626 129.447,288.565C122.28,288.222 115.112,287.878 107.944,287.533C98.913,287.099 89.883,286.668 80.852,286.241C76.17,286.019 71.487,285.796 66.805,285.57C62.47,285.361 58.135,285.155 53.799,284.953C52.232,284.879 50.666,284.804 49.099,284.727C38.502,284.209 27.942,284.044 17.332,284.129ZM92.422,339.398C76.871,359.717 73.111,385.099 73.02,410.004C73.014,411.299 73.008,412.595 73.002,413.929C73.186,438.111 79.15,463.497 96.145,481.504C104.757,489.775 113.258,492.489 124.957,492.332C136.049,491.664 144.097,486.422 151.816,478.617C164.562,463.968 168.046,447.008 167.332,428.129L162.332,428.129C162.197,428.954 162.061,429.779 161.922,430.629C158.862,447.046 152.619,461.897 139.27,472.629C132.077,477.528 125.046,479.381 116.332,478.129C107.285,475.363 101.444,469.279 96.645,461.336C88.248,445.446 85.904,428.878 85.957,411.129C85.958,410.404 85.959,409.68 85.96,408.934C86.051,386.074 90.316,364.256 105.645,346.441C112.619,340.44 118.88,336.359 128.332,336.129C137.926,336.899 144.106,340.947 150.332,348.129C152.684,351.322 154.58,354.575 156.332,358.129C156.71,358.886 157.087,359.642 157.477,360.422C160.14,366.377 161.299,372.451 162.294,378.86C162.58,380.627 162.949,382.38 163.332,384.129C166.194,385.56 168.266,384.729 171.332,384.129C170.752,365.575 166.701,346.742 153.355,332.961C144.519,324.961 134.243,322.514 122.465,322.848C110.118,323.956 100.314,330.009 92.422,339.398ZM204.219,338.629C198.631,346.033 194.514,354.899 193.332,364.129C193.224,364.865 193.115,365.601 193.004,366.359C192.314,371.635 192.248,376.813 192.332,382.129C196.787,381.634 196.787,381.634 201.332,381.129C201.57,379.497 201.57,379.497 201.813,377.832C203.882,364.451 206.694,352.422 217.332,343.129C221.817,340.074 227.003,339.168 232.332,340.129C234.552,341.033 236.59,342.062 238.668,343.254C240.314,344.284 240.314,344.284 242.332,344.129C242.605,344.722 242.879,345.315 243.16,345.926C244.292,348.053 245.508,349.568 247.082,351.379C250.074,355.302 251.851,359.364 253.582,363.941C253.828,364.58 254.074,365.22 254.327,365.878C258.12,376.368 258.693,386.799 258.645,397.879C258.641,398.874 258.641,398.874 258.638,399.889C258.542,418.341 255.864,437.314 242.332,451.129C236.684,456.048 232.327,458.526 224.738,458.402C219.069,457.758 214.88,455.038 211.082,450.879C205.436,443.641 203.288,436.019 201.332,427.129L199.332,427.129L199.332,431.129C196.692,431.459 194.052,431.789 191.332,432.129C195.286,446.913 200.785,461.7 214.332,470.129C222.48,473.274 229.497,472.592 237.332,469.129C250.424,462.371 256.62,450.335 261.484,436.961C270.4,408.8 271.314,374.148 258.332,347.129C253.346,338.601 247.001,331.179 237.332,328.129C223.959,326.842 213.764,328.406 204.219,338.629ZM-144.355,362.629C-145.124,362.635 -145.893,362.641 -146.685,362.647C-166.679,362.803 -186.674,362.963 -206.668,363.129L-206.668,376.129C-175.753,376.202 -144.842,376.024 -113.929,375.757C-108.842,375.713 -103.755,375.671 -98.668,375.632C-66.993,375.386 -35.333,374.962 -3.668,374.129L-3.668,392.129L3.332,392.129C3.361,388.066 3.379,384.004 3.395,379.941C3.403,378.791 3.411,377.64 3.42,376.455C3.423,375.343 3.426,374.231 3.43,373.086C3.435,372.065 3.44,371.044 3.446,369.991C3.337,367.255 2.899,364.801 2.332,362.129C-7.376,362.095 -17.085,362.077 -26.793,362.066C-27.957,362.065 -27.957,362.065 -29.145,362.064C-67.55,362.027 -105.952,362.33 -144.355,362.629ZM406.332,393.129C406.136,394.969 405.946,396.81 405.787,398.654C404.898,408.854 402.72,418.398 399.873,428.216C399.318,430.178 398.817,432.149 398.332,434.129C402.73,433.75 407.126,433.359 411.522,432.957C413.018,432.822 414.515,432.69 416.012,432.562C418.16,432.377 420.306,432.18 422.453,431.98C424.393,431.808 424.393,431.808 426.373,431.631C427.349,431.466 428.326,431.3 429.332,431.129C429.662,430.469 429.992,429.809 430.332,429.129C429.312,426.783 428.236,424.532 427.082,422.254C423.88,415.675 421.754,409.33 420.332,402.129C420.128,401.151 419.925,400.172 419.715,399.164C419.235,396.822 418.774,394.478 418.332,392.129C416.52,392.102 414.707,392.083 412.895,392.066C411.381,392.049 411.381,392.049 409.836,392.031C407.392,391.843 407.392,391.843 406.332,393.129ZM-175.668,395.129C-180.923,404.362 -186.058,413.655 -191.105,423.004C-196.153,432.352 -201.264,441.661 -206.444,450.936C-208.629,454.851 -210.804,458.772 -212.98,462.691C-213.768,464.109 -214.556,465.527 -215.344,466.945C-215.716,467.626 -216.088,468.307 -216.471,469.008C-217.325,470.52 -218.22,472.009 -219.142,473.48C-221.974,477.815 -221.974,477.815 -222.336,482.762C-220.049,486.007 -217.607,489.029 -214.98,492.004C-214.173,492.93 -214.173,492.93 -213.35,493.876C-207.244,501.417 -207.244,501.417 -199.668,507.129C-188.788,506.987 -177.928,505.179 -167.176,503.652C-165.396,503.403 -163.617,503.154 -161.837,502.906C-157.124,502.246 -152.411,501.581 -147.698,500.914C-143.813,500.365 -139.927,499.82 -136.04,499.274C-107.902,495.324 -79.774,491.307 -51.668,487.129C-54.007,466.308 -56.619,445.526 -59.355,424.754C-59.59,422.968 -59.59,422.968 -59.828,421.147C-60.276,417.737 -60.727,414.327 -61.18,410.918C-61.315,409.887 -61.45,408.856 -61.59,407.794C-61.717,406.842 -61.844,405.89 -61.975,404.909C-62.085,404.079 -62.195,403.248 -62.309,402.393C-62.647,400.261 -63.109,398.213 -63.668,396.129L-67.668,396.129C-68.322,422.466 -68.85,448.783 -68.668,475.129C-69.374,475.184 -70.08,475.24 -70.808,475.297C-74.011,475.55 -77.215,475.808 -80.418,476.066C-81.529,476.153 -82.64,476.24 -83.785,476.33C-84.855,476.417 -85.925,476.504 -87.027,476.594C-88.012,476.672 -88.996,476.751 -90.011,476.832C-92.328,477.091 -94.421,477.539 -96.668,478.129C-96.612,476.876 -96.612,476.876 -96.554,475.597C-96.198,467.669 -95.845,459.741 -95.495,451.813C-95.314,447.738 -95.133,443.664 -94.95,439.59C-94.772,435.647 -94.597,431.705 -94.425,427.763C-94.359,426.269 -94.292,424.776 -94.224,423.282C-93.812,414.227 -93.576,405.195 -93.668,396.129L-98.668,396.129C-101.149,405.556 -103.132,415.056 -105.023,424.613C-105.333,426.166 -105.642,427.718 -105.952,429.27C-106.759,433.314 -107.562,437.358 -108.364,441.402C-109.186,445.546 -110.012,449.689 -110.838,453.832C-112.451,461.93 -114.061,470.029 -115.668,478.129C-116.465,478.215 -117.262,478.3 -118.083,478.388C-121.695,478.778 -125.306,479.172 -128.918,479.566C-130.172,479.701 -131.426,479.836 -132.719,479.975C-133.924,480.107 -135.129,480.239 -136.371,480.375C-137.481,480.495 -138.592,480.616 -139.735,480.74C-142.126,481.057 -144.352,481.476 -146.668,482.129C-145.194,475.419 -143.714,468.711 -142.23,462.004C-141.897,460.497 -141.897,460.497 -141.557,458.959C-137.973,442.782 -134.244,426.645 -130.362,410.537C-130.179,409.777 -129.997,409.017 -129.809,408.234C-129.47,406.822 -129.128,405.411 -128.785,404C-127.947,400.602 -127.947,400.602 -127.668,397.129L-136.668,397.129C-143.747,413.467 -150.669,429.865 -157.48,446.316C-158.014,447.604 -158.014,447.604 -158.558,448.918C-160.271,453.058 -161.982,457.199 -163.69,461.341C-165.03,464.59 -166.379,467.835 -167.736,471.077C-168.063,471.863 -168.391,472.648 -168.728,473.458C-169.348,474.946 -169.97,476.432 -170.596,477.917C-172.141,481.405 -172.141,481.405 -172.668,485.129C-173.84,485.25 -175.011,485.371 -176.219,485.496C-177.806,485.665 -179.393,485.834 -180.98,486.004C-181.747,486.083 -182.513,486.161 -183.303,486.242C-189.485,486.909 -195.563,487.953 -201.668,489.129C-201.181,488.031 -200.693,486.932 -200.191,485.801C-192.769,468.87 -186.156,451.63 -179.532,434.376C-178.689,432.183 -177.843,429.991 -176.997,427.799C-175.704,424.449 -174.416,421.098 -173.133,417.744C-172.439,415.933 -171.741,414.124 -171.043,412.314C-168.879,406.629 -166.973,401.074 -165.668,395.129L-175.668,395.129ZM124.332,397.129C121.481,402.701 121.507,409.367 122.832,415.41C124.312,419.918 126.061,422.745 130.332,425.129C134.294,425.789 135.784,425.494 139.145,423.254C141.372,421.324 141.372,421.324 142.332,419.129C145.172,418.762 147.929,418.527 150.783,418.367C152.112,418.281 152.112,418.281 153.468,418.194C156.412,418.006 159.356,417.831 162.301,417.656C164.337,417.528 166.374,417.399 168.41,417.268C173.782,416.927 179.154,416.596 184.527,416.268C193.128,415.743 201.728,415.204 210.328,414.659C213.341,414.47 216.356,414.288 219.37,414.106C221.207,413.991 223.044,413.876 224.881,413.761C225.727,413.712 226.572,413.663 227.444,413.612C231.199,413.707 231.199,413.707 234.332,412.129C234.405,409.776 234.416,407.421 234.395,405.066C234.386,403.776 234.376,402.486 234.367,401.156C234.356,400.157 234.344,399.158 234.332,398.129C224.139,397.931 214.042,398.555 203.879,399.223C202.125,399.335 200.371,399.447 198.617,399.559C194.04,399.852 189.463,400.149 184.887,400.447C180.201,400.751 175.514,401.051 170.828,401.352C161.662,401.94 152.497,402.533 143.332,403.129C143.066,402.575 142.799,402.02 142.525,401.449C141.994,400.363 141.994,400.363 141.453,399.254C141.104,398.535 140.756,397.815 140.396,397.074C139.051,394.615 137.862,393.355 135.332,392.129C130.452,391.102 127.44,393.589 124.332,397.129ZM353.332,399.129C352.987,413.002 354.122,425.103 359.332,438.129C363.952,437.799 368.572,437.469 373.332,437.129C372.873,436.232 372.414,435.335 371.941,434.41C366.282,423.024 362.993,411.769 361.332,399.129L353.332,399.129ZM34.332,412.129C34.814,416.953 35.432,421.628 36.395,426.379C39.549,445.091 38.43,467.277 27.77,483.508C23.9,488.371 19.503,491.829 13.332,493.129C8.896,492.999 5.45,491.739 1.582,489.629C-9.403,477.423 -9.513,459.333 -8.85,443.809C-8.146,433.426 -5.969,423.255 -3.668,413.129L-14.668,413.129C-22.845,436.247 -25.948,463.791 -15.895,486.852C-11.344,495.3 -4.931,502.559 4.336,505.625C12.085,507.581 19.923,505.123 26.645,501.191C27.531,500.511 28.418,499.83 29.332,499.129C30.14,498.529 30.949,497.93 31.781,497.313C43.093,487.629 47.973,470.443 49.332,456.129C50.258,441.355 50.415,424.935 44.332,411.129L38.277,411.031C36.25,411.002 36.25,411.002 34.332,412.129ZM281.621,421.602C275.988,427.649 273.604,434.934 272.223,442.957C272.053,443.931 271.883,444.904 271.708,445.907C271.584,446.64 271.46,447.374 271.332,448.129C276.139,447.607 280.944,447.074 285.749,446.53C287.384,446.346 289.019,446.166 290.655,445.989C293.004,445.734 295.352,445.468 297.699,445.199C298.433,445.122 299.166,445.045 299.922,444.965C304.07,444.561 304.07,444.561 307.332,442.129C306.801,441.174 306.27,440.219 305.723,439.234C301.593,431.71 297.929,424.347 295.332,416.129C289.78,416.129 285.834,417.975 281.621,421.602ZM183.332,452.129C181.519,456.56 181.519,456.56 182.332,461.129C183.652,460.799 184.972,460.469 186.332,460.129C185.885,455.65 185.885,455.65 183.332,452.129ZM63.332,469.129C61.839,472.115 62.214,474.837 62.332,478.129C62.662,478.789 62.992,479.449 63.332,480.129C64.982,479.799 66.632,479.469 68.332,479.129C67.626,475.46 66.055,472.424 64.332,469.129L63.332,469.129ZM-104.668,519.129L-104.668,520.129C-98.844,521.113 -93.019,522.096 -87.191,523.055C-86.504,523.168 -85.817,523.281 -85.11,523.397C-83.703,523.629 -82.295,523.86 -80.888,524.091C-76.401,524.831 -71.925,525.616 -67.449,526.422C-55.234,528.565 -44.907,529.793 -32.668,527.129C-30.985,526.792 -29.301,526.458 -27.617,526.125C-21.605,524.914 -15.613,523.635 -9.668,522.129L-9.668,520.129C-32.995,518.816 -56.308,517.658 -79.668,517.129C-81.098,517.094 -81.098,517.094 -82.556,517.058C-84.927,517.005 -87.297,516.968 -89.668,516.941C-90.864,516.927 -92.06,516.913 -93.293,516.898C-97.304,517.172 -100.797,518.055 -104.668,519.129Z" style="fill-rule:nonzero;"/>
            </g>
            <g transform="matrix(4.16667,0,0,4.16667,343.656,1628.34)">
                <path d="M0,0C16.528,12.819 26.71,30.853 29.68,51.559C31.911,75.537 27.136,97.171 12.246,116.473C4.529,125.157 -4.181,130.891 -15,135C-15.672,135.266 -16.343,135.531 -17.035,135.805C-29.544,139.819 -43.578,136.923 -55.086,131.563C-70.646,123.243 -80.251,110.031 -85.957,93.652C-91.138,75.51 -91.317,54.871 -85,37C-84.649,35.953 -84.299,34.907 -83.938,33.828C-77.566,16.749 -65.244,3.266 -48.805,-4.512C-32.061,-11.691 -15.268,-10.268 0,0ZM-53.836,39.379C-59.615,48.611 -60.974,57.187 -60,68C-58.435,74.32 -55.708,79.511 -51,84C-46.645,86.547 -43.1,87.627 -38.043,86.688C-30.831,84.26 -26.732,78.911 -23.188,72.438C-19.048,63.94 -18.676,55.194 -21.625,46.25C-24.145,40.038 -27.34,35.755 -32.938,32.063C-41.687,29.027 -48.338,32.256 -53.836,39.379Z" style="fill-rule:nonzero;"/>
            </g>
        </g>
        <g transform="matrix(1.66667,0,0,1.66667,-413.386,-336.258)">
            <g id="path9" transform="matrix(4.66308,0,0,5.20833,-372.047,-1557.12)">
                <path d="M273.551,439.37L258.354,432.283L258.354,378.337L273.551,371.534" style="fill:rgb(215,81,66);fill-rule:nonzero;stroke:black;stroke-width:1.52px;stroke-linecap:round;stroke-linejoin:round;"/>
            </g>
            <g id="path383" serif:id="path38" transform="matrix(-4.66308,0,0,5.20833,1612.2,-1467.69)">
                <path d="M167.17,398.268L151.973,405.354" style="fill:none;fill-rule:nonzero;stroke:black;stroke-width:0.61px;stroke-linejoin:miter;"/>
            </g>
            <g id="path384" serif:id="path38" transform="matrix(-4.66308,0,0,5.20833,1612.2,-1644.85)">
                <path d="M167.17,398.268L151.973,405.354" style="fill:none;fill-rule:nonzero;stroke:black;stroke-width:0.61px;stroke-linejoin:miter;"/>
            </g>
            <g id="path385" serif:id="path38" transform="matrix(-4.66308,0,0,5.20833,1612.2,-1556.27)">
                <path d="M167.17,398.268L151.973,405.354" style="fill:none;fill-rule:nonzero;stroke:black;stroke-width:0.61px;stroke-linejoin:miter;"/>
            </g>
        </g>
    </g>
</svg>
