<?xml version="1.0" encoding="UTF-8" standalone="no"?>
<!DOCTYPE svg PUBLIC "-//W3C//DTD SVG 1.1//EN" "http://www.w3.org/Graphics/SVG/1.1/DTD/svg11.dtd">
<svg width="100%" height="100%" viewBox="0 0 2850 1650" version="1.1" xmlns="http://www.w3.org/2000/svg" xmlns:xlink="http://www.w3.org/1999/xlink" xml:space="preserve" xmlns:serif="http://www.serif.com/" style="fill-rule:evenodd;clip-rule:evenodd;stroke-linecap:round;stroke-linejoin:round;stroke-miterlimit:10;">
    <g transform="matrix(1,0,0,1,-612,-455.5)">
        <g transform="matrix(1,0,0,1,0,36)">
            <rect x="741.982" y="775.93" width="2154" height="309" style="fill:rgb(255,213,121);stroke:black;stroke-width:10.31px;"/>
        </g>
        <g transform="matrix(1,0,0,1,0,36)">
            <rect x="829.862" y="831.953" width="291.998" height="205.997" style="fill:rgb(255,127,127);stroke:black;stroke-width:10.31px;"/>
        </g>
        <g transform="matrix(1,0,0,1,875.567,996)">
            <text x="0px" y="0px" style="font-family:'Helvetica-Bold', 'Helvetica';font-weight:700;font-size:73px;">train</text>
        </g>
        <g transform="matrix(1,0,0,1,0,36)">
            <rect x="881.883" y="1208.01" width="547.997" height="206" style="fill:rgb(255,127,127);stroke:black;stroke-width:10.31px;"/>
        </g>
        <g transform="matrix(1,0,0,1,978.435,1371)">
            <text x="0px" y="0px" style="font-family:'Helvetica';font-size:73px;">model.ckpt</text>
        </g>
        <g transform="matrix(1,0,0,1,0,36)">
            <rect x="1615.98" y="1320.02" width="584" height="153" style="fill:rgb(127,160,255);stroke:black;stroke-width:10.31px;"/>
        </g>
        <g transform="matrix(1,0,0,1,1767.11,1456)">
            <text x="0px" y="0px" style="font-family:'Helvetica';font-size:73px;">model.pt</text>
        </g>
        <g transform="matrix(1,0,0,1,0,36)">
            <rect x="1615.98" y="1166" width="584" height="153" style="fill:rgb(127,160,255);stroke:black;stroke-width:10.31px;"/>
        </g>
        <g transform="matrix(1,0,0,1,1722.58,1303)">
            <text x="0px" y="0px" style="font-family:'Helvetica';font-size:73px;">extensions/</text>
        </g>
        <g transform="matrix(1,0,0,1,0,36)">
            <path d="M1280.86,594.903C1280.86,651.75 1234.66,697.903 1177.74,697.903L765.985,697.903C709.067,697.903 662.861,651.75 662.861,594.903C662.861,538.055 709.067,491.902 765.985,491.902L1177.74,491.902C1234.66,491.902 1280.86,538.055 1280.86,594.903Z" style="fill:rgb(255,127,127);stroke:black;stroke-width:10.31px;"/>
        </g>
        <g transform="matrix(1,0,0,1,766.146,655)">
            <text x="0px" y="0px" style="font-family:'Helvetica';font-size:73px;">options.yaml</text>
        </g>
        <g transform="matrix(1,0,0,1,0,36)">
            <path d="M2897.08,594.903C2897.08,651.75 2850.92,697.903 2794.06,697.903L2527.1,697.903C2470.25,697.903 2424.08,651.75 2424.08,594.903C2424.08,538.055 2470.25,491.902 2527.1,491.902L2794.06,491.902C2850.92,491.902 2897.08,538.055 2897.08,594.903Z" style="fill:rgb(90,198,62);stroke:black;stroke-width:10.31px;"/>
        </g>
        <g transform="matrix(1,0,0,1,2505.56,655)">
            <text x="0px" y="0px" style="font-family:'Helvetica';font-size:73px;">eval.yaml</text>
        </g>
        <g transform="matrix(1,0,0,1,0,36)">
            <path d="M2101.96,594.903C2101.96,651.75 2055.84,697.903 1999.02,697.903L1490.9,697.903C1434.09,697.903 1387.96,651.75 1387.96,594.903C1387.96,538.055 1434.09,491.902 1490.9,491.902L1999.02,491.902C2055.84,491.902 2101.96,538.055 2101.96,594.903Z" style="fill:rgb(127,160,255);stroke:black;stroke-width:10.31px;"/>
        </g>
        <g transform="matrix(1,0,0,1,1504.45,655)">
            <text x="0px" y="0px" style="font-family:'Helvetica';font-size:73px;">metadata.yaml</text>
        </g>
        <g transform="matrix(1,0,0,1,0,36)">
            <rect x="2517.08" y="831.953" width="292" height="205.997" style="fill:rgb(90,198,62);stroke:black;stroke-width:10.31px;"/>
        </g>
        <g transform="matrix(1,0,0,1,2582.66,996)">
            <text x="0px" y="0px" style="font-family:'Helvetica-Bold', 'Helvetica';font-weight:700;font-size:73px;">eval</text>
        </g>
        <g transform="matrix(1,0,0,1,0,36)">
            <rect x="2530.08" y="1210.01" width="292" height="206" style="fill:rgb(90,198,62);stroke:black;stroke-width:10.31px;"/>
        </g>
        <g transform="matrix(1,0,0,1,2619.15,1373)">
            <text x="0px" y="0px" style="font-family:'Helvetica';font-size:73px;">MD</text>
        </g>
        <g transform="matrix(1,0,0,1,0,36)">
            <rect x="2396.09" y="1607.07" width="587" height="206" style="fill:rgb(90,198,62);stroke:black;stroke-width:10.31px;"/>
        </g>
        <g transform="matrix(1,0,0,1,2494.46,1770)">
            <text x="0px" y="0px" style="font-family:'Helvetica';font-size:73px;">chemiscope</text>
        </g>
        <g transform="matrix(1,0,0,1,0,36)">
            <rect x="1555.96" y="831.953" width="364" height="205.997" style="fill:rgb(127,160,255);stroke:black;stroke-width:10.31px;"/>
        </g>
        <g transform="matrix(1,0,0,1,1617.66,996)">
            <text x="0px" y="0px" style="font-family:'Helvetica-Bold', 'Helvetica';font-weight:700;font-size:73px;">export</text>
        </g>
        <g transform="matrix(1,0,0,1,0,36)">
            <rect x="3004.15" y="831.953" width="364" height="205.997" style="fill:rgb(209,209,209);stroke:black;stroke-width:10.31px;"/>
        </g>
        <g transform="matrix(1,0,0,1,3059.56,951)">
            <text x="0px" y="0px" style="font-family:'Helvetica';font-size:73px;">Predict</text>
        </g>
        <g transform="matrix(1,0,0,1,3287.58,951)">
            <text x="0px" y="0px" style="font-family:'Helvetica';font-size:73px;">-</text>
        </g>
        <g transform="matrix(1,0,0,1,3118.85,1039)">
            <text x="0px" y="0px" style="font-family:'Helvetica';font-size:73px;">ions</text>
        </g>
        <g transform="matrix(1,0,0,1,0,36)">
            <path d="M1232.49,1808.85C1232.49,1778.65 1213.1,1751.38 1183.4,1738.62C1181.32,1672.87 1121.52,1624.3 1048.64,1619.97C949.88,1614.1 918.578,1686.63 913.822,1686.63C880.485,1686.63 850.383,1704.22 836.337,1731.16C790.854,1733.03 754.489,1767.17 754.489,1808.85C754.489,1851.74 792.986,1886.63 840.284,1886.63L1146.69,1886.63C1193.99,1886.63 1232.49,1851.74 1232.49,1808.85Z" style="fill:rgb(209,209,209);stroke:black;stroke-width:10.54px;stroke-linecap:butt;"/>
        </g>
        <g transform="matrix(1,0,0,1,834.838,1863)">
            <text x="0px" y="0px" style="font-family:'Helvetica';font-size:73px;">download</text>
        </g>
        <g transform="matrix(1,0,0,1,0,36)">
            <path d="M1295,1454L1311,1422L1327,1454C1319,1446 1303,1446 1295,1454Z"/>
        </g>
        <g transform="matrix(1,0,0,1,0,36)">
            <path d="M1201.27,1718C1198.36,1718 1196,1715.63 1196,1712.71C1196,1709.79 1198.36,1707.42 1201.27,1707.42L1214.95,1707.42C1217.85,1707.42 1220.22,1709.79 1220.22,1712.71C1220.22,1715.63 1217.85,1718 1214.95,1718L1201.27,1718ZM1242.32,1718C1239.41,1718 1237.05,1715.63 1237.05,1712.71C1237.05,1709.79 1239.41,1707.42 1242.32,1707.42L1269.68,1707.42C1272.59,1707.42 1274.95,1709.79 1274.95,1712.71C1274.95,1715.63 1272.59,1718 1269.68,1718L1242.32,1718ZM1297.05,1718C1294.14,1718 1291.78,1715.63 1291.78,1712.71C1291.78,1709.79 1294.14,1707.42 1297.05,1707.42L1305.47,1707.42L1305.47,1701.65C1305.47,1698.73 1307.83,1696.36 1310.73,1696.36C1313.64,1696.36 1316,1698.73 1316,1701.65L1316,1712.71C1316,1715.63 1313.64,1718 1310.73,1718L1297.05,1718ZM1316,1679.53C1316,1682.45 1313.64,1684.82 1310.73,1684.82C1307.83,1684.82 1305.47,1682.45 1305.47,1679.53L1305.47,1657.41C1305.47,1654.49 1307.83,1652.12 1310.73,1652.12C1313.64,1652.12 1316,1654.49 1316,1657.41L1316,1679.53ZM1316,1635.29C1316,1638.21 1313.64,1640.58 1310.73,1640.58C1307.83,1640.58 1305.47,1638.21 1305.47,1635.29L1305.47,1613.18C1305.47,1610.25 1307.83,1607.88 1310.73,1607.88C1313.64,1607.88 1316,1610.25 1316,1613.18L1316,1635.29ZM1316,1591.06C1316,1593.98 1313.64,1596.35 1310.73,1596.35C1307.83,1596.35 1305.47,1593.98 1305.47,1591.06L1305.47,1568.94C1305.47,1566.02 1307.83,1563.65 1310.73,1563.65C1313.64,1563.65 1316,1566.02 1316,1568.94L1316,1591.06ZM1316,1546.82C1316,1549.74 1313.64,1552.11 1310.73,1552.11C1307.83,1552.11 1305.47,1549.74 1305.47,1546.82L1305.47,1524.7C1305.47,1521.78 1307.83,1519.41 1310.73,1519.41C1313.64,1519.41 1316,1521.78 1316,1524.7L1316,1546.82ZM1316,1502.59C1316,1505.5 1313.64,1507.88 1310.73,1507.88C1307.83,1507.88 1305.47,1505.5 1305.47,1502.59L1305.47,1480.47C1305.47,1477.55 1307.83,1475.18 1310.73,1475.18C1313.64,1475.18 1316,1477.55 1316,1480.47L1316,1502.59ZM1316,1458.35C1316,1461.27 1313.64,1463.64 1310.73,1463.64C1307.83,1463.64 1305.47,1461.27 1305.47,1458.35L1305.47,1447.29C1305.47,1444.37 1307.83,1442 1310.73,1442C1313.64,1442 1316,1444.37 1316,1447.29L1316,1458.35Z"/>
        </g>
        <g transform="matrix(1,0,0,1,0,36)">
            <path d="M1324,1171L1308.5,1203L1293,1171C1300.75,1179 1316.25,1179 1324,1171Z"/>
        </g>
        <g transform="matrix(1,0,0,1,0,36)">
            <path d="M1143.5,927.5L1309.5,927.5L1309.5,1177.5" style="fill:none;stroke:black;stroke-width:10.55px;"/>
        </g>
        <g transform="matrix(1,0,0,1,0,36)">
            <path d="M1498,920L1529,936L1498,952C1505.75,944 1505.75,928 1498,920Z"/>
        </g>
        <g transform="matrix(1,0,0,1,0,36)">
            <path d="M1441.5,1347.5L1469.04,1347.5L1469.04,936.5L1504.5,936.5" style="fill:none;stroke:black;stroke-width:10.55px;"/>
        </g>
        <g transform="matrix(1,0,0,1,0,36)">
            <path d="M2472,919L2514,933.5L2472,948C2482.5,940.75 2482.5,926.25 2472,919Z"/>
        </g>
        <g transform="matrix(1,0,0,1,0,36)">
            <path d="M2206.5,1322.5L2336.85,1322.5L2336.85,933.5L2481.5,933.5" style="fill:none;stroke:black;stroke-width:10.55px;"/>
        </g>
        <g transform="matrix(1,0,0,1,0,36)">
            <path d="M2359,1698L2391,1711.5L2359,1725C2367,1718.25 2367,1704.75 2359,1698Z"/>
        </g>
        <g transform="matrix(1,0,0,1,0,36)">
            <path d="M2302.27,1326.09C2299.36,1326.09 2297,1324.05 2297,1321.54C2297,1319.04 2299.36,1317 2302.27,1317L2335.55,1317C2338.47,1317 2340.82,1319.04 2340.82,1321.54L2340.82,1331.29C2340.82,1333.8 2338.46,1335.84 2335.55,1335.84C2332.65,1335.84 2330.28,1333.8 2330.28,1331.29L2330.28,1326.09L2302.27,1326.09ZM2330.28,1350.79C2330.28,1348.28 2332.65,1346.25 2335.55,1346.25C2338.46,1346.25 2340.82,1348.28 2340.82,1350.79L2340.82,1370.29C2340.82,1372.79 2338.46,1374.83 2335.55,1374.83C2332.65,1374.83 2330.28,1372.79 2330.28,1370.29L2330.28,1350.79ZM2330.28,1389.78C2330.28,1387.27 2332.65,1385.24 2335.55,1385.24C2338.46,1385.24 2340.82,1387.27 2340.82,1389.78L2340.82,1409.28C2340.82,1411.78 2338.46,1413.82 2335.55,1413.82C2332.65,1413.82 2330.28,1411.78 2330.28,1409.28L2330.28,1389.78ZM2330.28,1428.77C2330.28,1426.26 2332.65,1424.23 2335.55,1424.23C2338.46,1424.23 2340.82,1426.26 2340.82,1428.77L2340.82,1448.27C2340.82,1450.78 2338.46,1452.81 2335.55,1452.81C2332.65,1452.81 2330.28,1450.78 2330.28,1448.27L2330.28,1428.77ZM2330.28,1467.76C2330.28,1465.25 2332.65,1463.22 2335.55,1463.22C2338.46,1463.22 2340.82,1465.25 2340.82,1467.76L2340.82,1487.26C2340.82,1489.77 2338.46,1491.8 2335.55,1491.8C2332.65,1491.8 2330.28,1489.77 2330.28,1487.26L2330.28,1467.76ZM2330.28,1506.75C2330.28,1504.25 2332.65,1502.21 2335.55,1502.21C2338.46,1502.21 2340.82,1504.25 2340.82,1506.75L2340.82,1526.25C2340.82,1528.76 2338.46,1530.8 2335.55,1530.8C2332.65,1530.8 2330.28,1528.76 2330.28,1526.25L2330.28,1506.75ZM2330.28,1545.74C2330.28,1543.24 2332.65,1541.2 2335.55,1541.2C2338.46,1541.2 2340.82,1543.24 2340.82,1545.74L2340.82,1565.24C2340.82,1567.75 2338.46,1569.78 2335.55,1569.78C2332.65,1569.78 2330.28,1567.75 2330.28,1565.24L2330.28,1545.74ZM2330.28,1584.74C2330.28,1582.23 2332.65,1580.19 2335.55,1580.19C2338.46,1580.19 2340.82,1582.23 2340.82,1584.74L2340.82,1604.23C2340.82,1606.74 2338.46,1608.78 2335.55,1608.78C2332.65,1608.78 2330.28,1606.74 2330.28,1604.23L2330.28,1584.74ZM2330.28,1623.73C2330.28,1621.22 2332.65,1619.18 2335.55,1619.18C2338.46,1619.18 2340.82,1621.22 2340.82,1623.73L2340.82,1643.22C2340.82,1645.73 2338.46,1647.77 2335.55,1647.77C2332.65,1647.77 2330.28,1645.73 2330.28,1643.22L2330.28,1623.73ZM2330.28,1662.72C2330.28,1660.21 2332.65,1658.17 2335.55,1658.17C2338.46,1658.17 2340.82,1660.21 2340.82,1662.72L2340.82,1682.21C2340.82,1684.72 2338.46,1686.76 2335.55,1686.76C2332.65,1686.76 2330.28,1684.72 2330.28,1682.21L2330.28,1662.72ZM2330.28,1701.71C2330.28,1699.2 2332.65,1697.16 2335.55,1697.16C2338.46,1697.16 2340.82,1699.2 2340.82,1701.71L2340.82,1706.91L2365.73,1706.91C2368.64,1706.91 2371,1708.95 2371,1711.46C2371,1713.96 2368.64,1716 2365.73,1716L2335.55,1716C2332.64,1716 2330.28,1713.97 2330.28,1711.46L2330.28,1701.71Z"/>
        </g>
        <g transform="matrix(1,0,0,1,0,36)">
            <path d="M2053,1128L2037.5,1160L2022,1128C2029.75,1136 2045.25,1136 2053,1128Z"/>
        </g>
        <g transform="matrix(1,0,0,1,0,36)">
            <path d="M1959.5,927.5L2038.5,927.5L2038.5,1134.5" style="fill:none;stroke:black;stroke-width:10.55px;"/>
        </g>
        <g transform="matrix(1,0,0,1,0,36)">
            <path d="M990,793L974.5,825L959,793C966.75,801 982.25,801 990,793Z"/>
        </g>
        <g transform="matrix(1,0,0,1,0,36)">
            <path d="M974.5,711.5L974.5,799.5" style="fill:none;stroke:black;stroke-width:10.55px;"/>
        </g>
        <g transform="matrix(1,0,0,1,0,36)">
            <path d="M1757,793L1741,825L1725,793C1733,801 1749,801 1757,793Z"/>
        </g>
        <g transform="matrix(1,0,0,1,0,36)">
            <path d="M1741.5,711.5L1741.5,799.5" style="fill:none;stroke:black;stroke-width:10.55px;"/>
        </g>
        <g transform="matrix(1,0,0,1,0,36)">
            <path d="M2679,793L2663,825L2647,793C2655,801 2671,801 2679,793Z"/>
        </g>
        <g transform="matrix(1,0,0,1,0,36)">
            <path d="M2663.5,711.5L2663.5,799.5" style="fill:none;stroke:black;stroke-width:10.55px;"/>
        </g>
        <g transform="matrix(1,0,0,1,0,36)">
            <path d="M2470,1306L2502,1322L2470,1338C2478,1330 2478,1314 2470,1306Z"/>
        </g>
        <g transform="matrix(1,0,0,1,0,36)">
            <path d="M2327.27,1327C2324.36,1327 2322,1324.76 2322,1322C2322,1319.24 2324.36,1317 2327.27,1317L2339.73,1317C2342.64,1317 2345,1319.24 2345,1322C2345,1324.76 2342.64,1327 2339.73,1327L2327.27,1327ZM2364.64,1327C2361.73,1327 2359.36,1324.76 2359.36,1322C2359.36,1319.24 2361.73,1317 2364.64,1317L2389.55,1317C2392.46,1317 2394.82,1319.24 2394.82,1322C2394.82,1324.76 2392.46,1327 2389.55,1327L2364.64,1327ZM2414.45,1327C2411.54,1327 2409.18,1324.76 2409.18,1322C2409.18,1319.24 2411.54,1317 2414.45,1317L2439.36,1317C2442.27,1317 2444.64,1319.24 2444.64,1322C2444.64,1324.76 2442.27,1327 2439.36,1327L2414.45,1327ZM2464.27,1327C2461.36,1327 2459,1324.76 2459,1322C2459,1319.24 2461.36,1317 2464.27,1317L2476.73,1317C2479.64,1317 2482,1319.24 2482,1322C2482,1324.76 2479.64,1327 2476.73,1327L2464.27,1327Z"/>
        </g>
        <g transform="matrix(1,0,0,1,0,36)">
            <path d="M2968,919L3000,935L2968,951C2976,943.001 2976,927 2968,919Z"/>
        </g>
        <g transform="matrix(1,0,0,1,0,36)">
            <path d="M2820.5,935.5L2975.5,935.5" style="fill:none;stroke:black;stroke-width:10.55px;"/>
        </g>
        <g transform="matrix(1,0,0,1,0,36)">
            <path d="M3020,1306L3052,1322L3020,1338C3028,1330 3028,1314 3020,1306Z"/>
        </g>
        <g transform="matrix(1,0,0,1,0,36)">
            <path d="M2841.27,1327C2838.36,1327 2836,1324.76 2836,1322C2836,1319.24 2838.36,1317 2841.27,1317L2852.86,1317C2855.77,1317 2858.14,1319.24 2858.14,1322C2858.14,1324.76 2855.77,1327 2852.86,1327L2841.27,1327ZM2876.05,1327C2873.14,1327 2870.77,1324.76 2870.77,1322C2870.77,1319.24 2873.14,1317 2876.05,1317L2899.23,1317C2902.14,1317 2904.5,1319.24 2904.5,1322C2904.5,1324.76 2902.14,1327 2899.23,1327L2876.05,1327ZM2922.41,1327C2919.5,1327 2917.14,1324.76 2917.14,1322C2917.14,1319.24 2919.5,1317 2922.41,1317L2945.59,1317C2948.5,1317 2950.86,1319.24 2950.86,1322C2950.86,1324.76 2948.5,1327 2945.59,1327L2922.41,1327ZM2968.77,1327C2965.86,1327 2963.5,1324.76 2963.5,1322C2963.5,1319.24 2965.86,1317 2968.77,1317L2991.95,1317C2994.86,1317 2997.23,1319.24 2997.23,1322C2997.23,1324.76 2994.86,1327 2991.95,1327L2968.77,1327ZM3015.13,1327C3012.23,1327 3009.86,1324.76 3009.86,1322C3009.86,1319.24 3012.23,1317 3015.13,1317L3026.73,1317C3029.64,1317 3032,1319.24 3032,1322C3032,1324.76 3029.64,1327 3026.73,1327L3015.13,1327Z"/>
        </g>
        <g transform="matrix(1,0,0,1,0,36)">
            <path d="M3057,1699L3088,1714.5L3057,1730C3064.75,1722.25 3064.75,1706.75 3057,1699Z"/>
        </g>
        <g transform="matrix(1,0,0,1,0,36)">
            <path d="M2993.23,1720C2990.34,1720 2988,1717.54 2988,1714.5C2988,1711.46 2990.34,1709 2993.23,1709L3010.61,1709C3013.5,1709 3015.84,1711.46 3015.84,1714.5C3015.84,1717.54 3013.5,1720 3010.61,1720L2993.23,1720ZM3045.38,1720C3042.5,1720 3040.15,1717.54 3040.15,1714.5C3040.15,1711.46 3042.5,1709 3045.38,1709L3062.77,1709C3065.66,1709 3068,1711.46 3068,1714.5C3068,1717.54 3065.66,1720 3062.77,1720L3045.38,1720Z"/>
        </g>
        <g transform="matrix(1,0,0,1,0,36)">
            <path d="M3182.7,1448.43L3208.41,1310.97L3340.4,1264.57" style="fill:none;stroke:rgb(51,51,51);stroke-width:50.96px;stroke-linecap:butt;stroke-linejoin:miter;stroke-miterlimit:8;"/>
        </g>
        <g transform="matrix(1,0,0,1,0,36)">
            <path d="M3182.7,1448.43L3208.41,1310.97L3340.4,1264.57" style="fill:none;stroke:rgb(179,179,179);stroke-width:33.92px;stroke-linecap:butt;stroke-linejoin:miter;stroke-miterlimit:8;"/>
        </g>
        <g transform="matrix(1,0,0,1,0,36)">
            <path d="M3247.14,1265.82C3272.08,1287.2 3274.98,1324.73 3253.62,1349.65C3232.26,1374.58 3194.73,1377.45 3169.79,1356.08C3144.85,1334.71 3141.95,1297.18 3163.31,1272.25C3184.66,1247.33 3222.2,1244.45 3247.14,1265.82Z" style="fill:rgb(212,0,0);stroke:rgb(128,0,0);stroke-width:17.04px;stroke-linejoin:miter;stroke-miterlimit:8;"/>
        </g>
        <g transform="matrix(1,0,0,1,0,36)">
            <path d="M3366.94,1233.53C3384.05,1248.2 3386.05,1273.95 3371.39,1291.05C3356.73,1308.16 3330.98,1310.13 3313.86,1295.46C3296.75,1280.8 3294.76,1255.04 3309.41,1237.94C3324.07,1220.84 3349.83,1218.86 3366.94,1233.53Z" style="fill:white;stroke:rgb(51,51,51);stroke-width:17.04px;stroke-linejoin:miter;stroke-miterlimit:8;"/>
        </g>
        <g transform="matrix(1,0,0,1,0,36)">
            <path d="M3209.24,1417.55C3226.35,1432.21 3228.35,1457.97 3213.69,1475.07C3199.03,1492.17 3173.28,1494.15 3156.16,1479.48C3139.05,1464.81 3137.06,1439.06 3151.71,1421.96C3166.37,1404.86 3192.13,1402.88 3209.24,1417.55Z" style="fill:white;stroke:rgb(51,51,51);stroke-width:17.04px;stroke-linejoin:miter;stroke-miterlimit:8;"/>
        </g>
        <g transform="matrix(1,0,0,1,0,36)">
            <path d="M3203,1224.51C3202.18,1224.87 3201.81,1225.93 3200.98,1226.3C3200.2,1226.64 3176.52,1224.52 3156.09,1237.4C3125.79,1256.51 3120.58,1296.44 3120.14,1310.04C3120.13,1310.37 3120.3,1310.75 3120.12,1311.02C3119.39,1312.17 3119.01,1311.84 3118.28,1312.99C3117.72,1312.2 3116.83,1311.68 3116.27,1310.89C3115.98,1310.5 3110.23,1238.36 3170.09,1224.22C3176.1,1222.8 3186.2,1221.19 3200.15,1222.42C3200.49,1222.45 3200.9,1222.32 3201.18,1222.52C3202.28,1223.33 3201.9,1223.7 3203,1224.51Z"/>
        </g>
        <g transform="matrix(1,0,0,1,0,36)">
            <path d="M3103.63,1282.98C3103.51,1282.68 3103.18,1282.48 3103.04,1282.18C3102.95,1281.96 3101.65,1248.38 3120.95,1227.51C3138.1,1208.97 3160.7,1209.8 3167.18,1210.08C3167.51,1210.09 3167.99,1210.08 3167.99,1210.67C3167.99,1210.95 3167.67,1211.17 3167.4,1211.26C3165.87,1211.78 3143.01,1210.82 3125.7,1230.4C3122.91,1233.56 3109.01,1249.28 3104.7,1278.63C3104.19,1282.1 3104.38,1282.14 3104.25,1282.41C3104.12,1282.66 3103.76,1282.74 3103.63,1282.98Z"/>
        </g>
        <g transform="matrix(1,0,0,1,0,36)">
            <path d="M3169.86,1513.82C3170.74,1513.66 3171.45,1512.93 3172.33,1512.77C3172.7,1512.7 3187.36,1518.75 3202.23,1514.27C3223.32,1507.92 3234.86,1485.98 3237.9,1479.82C3239.08,1477.43 3239.79,1475.68 3239.94,1475.31C3240.02,1475.1 3240,1474.82 3240.18,1474.69C3241.28,1473.9 3241.45,1474.21 3242.55,1473.42C3242.86,1474.31 3243.46,1475.09 3243.77,1475.98C3243.9,1476.34 3235.84,1509.33 3211.34,1519.2C3196.15,1525.32 3182.06,1521.57 3171.14,1516.4C3171.06,1516.37 3170.95,1516.37 3170.91,1516.29C3170.31,1515.09 3170.46,1515.03 3169.86,1513.82Z"/>
        </g>
        <g transform="matrix(1,0,0,1,0,36)">
            <path d="M3188.87,1530.21C3189.19,1530.2 3189.45,1529.88 3189.77,1529.87C3190.9,1529.84 3204.91,1534.92 3219.83,1525.05C3222.24,1523.45 3234.67,1515.23 3243.66,1497.79L3243.96,1497.2C3244.04,1497.04 3244.06,1496.83 3244.2,1496.71C3244.41,1496.53 3244.74,1496.54 3244.95,1496.36C3244.96,1496.68 3245.27,1496.94 3245.27,1497.26C3245.27,1497.41 3239.3,1520.06 3222.67,1529.7C3207.13,1538.71 3192.42,1532.27 3189.71,1531.15C3189.6,1531.11 3189.47,1531.1 3189.39,1531.02C3189.18,1530.78 3189.08,1530.45 3188.87,1530.21Z"/>
        </g>
        <g transform="matrix(1,0,0,1,0,36)">
            <path d="M3403.48,1258.45C3403.08,1257.65 3402.18,1257.17 3401.78,1256.37C3401.61,1256.03 3403.31,1240.26 3394.84,1227.24C3382.84,1208.78 3358.55,1203.84 3351.79,1202.65C3349.16,1202.19 3347.28,1201.99 3346.89,1201.95C3346.67,1201.93 3346.4,1202.03 3346.22,1201.89C3345.15,1201.06 3345.41,1200.8 3344.34,1199.98C3345.11,1199.43 3345.68,1198.64 3346.45,1198.09C3346.77,1197.86 3380.7,1196.36 3397.03,1217.12C3407.16,1229.99 3407.5,1244.57 3405.6,1256.5C3405.59,1256.58 3405.62,1256.69 3405.56,1256.75C3404.57,1257.66 3404.48,1257.53 3403.48,1258.45Z"/>
        </g>
        <g transform="matrix(1,0,0,1,0,36)">
            <path d="M3413.88,1235.9C3413.67,1235.49 3413.21,1235.24 3413.01,1234.82C3412.72,1234.25 3412.92,1220.21 3400.73,1209.52C3398.48,1207.55 3386.54,1197.08 3367.39,1192.43L3366.75,1192.28C3366.57,1192.24 3366.36,1192.28 3366.22,1192.16C3365.89,1191.91 3365.72,1191.48 3365.39,1191.22C3365.82,1191.05 3366.06,1190.56 3366.48,1190.38C3366.56,1190.35 3393.2,1188.38 3406.9,1204.47C3409.64,1207.69 3417.35,1217.39 3414.95,1234.07C3414.91,1234.34 3414.96,1234.65 3414.82,1234.88C3414.59,1235.28 3414.11,1235.5 3413.88,1235.9Z"/>
        </g>
        <g transform="matrix(1,0,0,1,0,36)">
            <path d="M3140,1654L3124,1622L3108,1654C3116,1646 3132,1646 3140,1654Z"/>
        </g>
        <g transform="matrix(1,0,0,1,0,36)">
            <path d="M3345,1865L3377,1880.5L3345,1896C3353,1888.25 3353,1872.75 3345,1865Z"/>
        </g>
        <g transform="matrix(1,0,0,1,0,36)">
            <path d="M3124.5,1648.5L3124.5,1880.5L3352.5,1880.5" style="fill:none;stroke:black;stroke-width:10.55px;"/>
        </g>
        <g transform="matrix(1,0,0,1,0,36)">
            <path d="M3172.99,1665C3172.99,1670.53 3168.51,1675 3162.99,1675C3157.47,1675 3152.99,1670.53 3152.99,1665C3152.99,1659.48 3157.47,1655 3162.99,1655C3168.51,1655 3172.99,1659.48 3172.99,1665Z" style="fill:rgb(90,198,62);"/>
        </g>
        <g transform="matrix(1,0,0,1,0,36)">
            <path d="M3197.99,1653C3197.99,1658.53 3193.29,1663 3187.49,1663C3181.7,1663 3176.99,1658.53 3176.99,1653C3176.99,1647.48 3181.7,1643 3187.49,1643C3193.29,1643 3197.99,1647.48 3197.99,1653Z" style="fill:rgb(90,198,62);"/>
        </g>
        <g transform="matrix(1,0,0,1,0,36)">
            <path d="M3197.99,1689.01C3197.99,1694.53 3193.29,1699.01 3187.49,1699.01C3181.7,1699.01 3176.99,1694.53 3176.99,1689.01C3176.99,1683.48 3181.7,1679.01 3187.49,1679.01C3193.29,1679.01 3197.99,1683.48 3197.99,1689.01Z" style="fill:rgb(90,198,62);"/>
        </g>
        <g transform="matrix(1,0,0,1,0,36)">
            <path d="M3168.99,1701.01C3168.99,1706.53 3164.51,1711.01 3158.99,1711.01C3153.47,1711.01 3148.99,1706.53 3148.99,1701.01C3148.99,1695.49 3153.47,1691.01 3158.99,1691.01C3164.51,1691.01 3168.99,1695.49 3168.99,1701.01Z" style="fill:rgb(90,198,62);"/>
        </g>
        <g transform="matrix(1,0,0,1,0,36)">
            <path d="M3197.99,1717.01C3197.99,1722.53 3193.29,1727.01 3187.49,1727.01C3181.7,1727.01 3176.99,1722.53 3176.99,1717.01C3176.99,1711.49 3181.7,1707.01 3187.49,1707.01C3193.29,1707.01 3197.99,1711.49 3197.99,1717.01Z" style="fill:rgb(90,198,62);"/>
        </g>
        <g transform="matrix(1,0,0,1,0,36)">
            <path d="M3226,1705.01C3226,1710.53 3221.52,1715.01 3216,1715.01C3210.48,1715.01 3206,1710.53 3206,1705.01C3206,1699.49 3210.48,1695.01 3216,1695.01C3221.52,1695.01 3226,1699.49 3226,1705.01Z" style="fill:rgb(90,198,62);"/>
        </g>
        <g transform="matrix(1,0,0,1,0,36)">
            <path d="M3238,1665C3238,1670.53 3233.52,1675 3228,1675C3222.48,1675 3218,1670.53 3218,1665C3218,1659.48 3222.48,1655 3228,1655C3233.52,1655 3238,1659.48 3238,1665Z" style="fill:rgb(90,198,62);"/>
        </g>
        <g transform="matrix(1,0,0,1,0,36)">
            <path d="M3226,1733.01C3226,1738.54 3221.52,1743.01 3216,1743.01C3210.48,1743.01 3206,1738.54 3206,1733.01C3206,1727.49 3210.48,1723.01 3216,1723.01C3221.52,1723.01 3226,1727.49 3226,1733.01Z" style="fill:rgb(90,198,62);"/>
        </g>
        <g transform="matrix(1,0,0,1,0,36)">
            <path d="M3226,1632.5C3226,1638.3 3221.52,1643 3216,1643C3210.48,1643 3206,1638.3 3206,1632.5C3206,1626.7 3210.48,1622 3216,1622C3221.52,1622 3226,1626.7 3226,1632.5Z" style="fill:rgb(90,198,62);"/>
        </g>
        <g transform="matrix(1,0,0,1,0,36)">
            <path d="M3254,1693.01C3254,1698.53 3249.52,1703.01 3244,1703.01C3238.48,1703.01 3234,1698.53 3234,1693.01C3234,1687.48 3238.48,1683.01 3244,1683.01C3249.52,1683.01 3254,1687.48 3254,1693.01Z" style="fill:rgb(90,198,62);"/>
        </g>
        <g transform="matrix(1,0,0,1,0,36)">
            <path d="M3192.47,1781.8C3188.43,1785.25 3182.36,1784.77 3178.91,1780.73C3175.46,1776.69 3175.94,1770.62 3179.98,1767.17C3184.02,1763.72 3190.09,1764.19 3193.54,1768.23C3196.99,1772.27 3196.51,1778.34 3192.47,1781.8Z" style="fill:rgb(255,127,127);"/>
        </g>
        <g transform="matrix(1,0,0,1,0,36)">
            <path d="M3216.24,1791.86C3212.2,1795.32 3206.12,1794.84 3202.67,1790.8C3199.23,1786.76 3199.71,1780.69 3203.75,1777.24C3207.79,1773.79 3213.86,1774.26 3217.31,1778.3C3220.76,1782.34 3220.28,1788.41 3216.24,1791.86Z" style="fill:rgb(255,127,127);"/>
        </g>
        <g transform="matrix(1,0,0,1,0,36)">
            <path d="M3189.91,1814.36C3185.87,1817.81 3179.8,1817.34 3176.35,1813.3C3172.9,1809.26 3173.38,1803.19 3177.42,1799.74C3181.46,1796.28 3187.53,1796.76 3190.98,1800.8C3194.43,1804.84 3193.95,1810.91 3189.91,1814.36Z" style="fill:rgb(255,127,127);"/>
        </g>
        <g transform="matrix(1,0,0,1,0,36)">
            <path d="M3163.65,1801.37C3159.6,1804.82 3153.53,1804.34 3150.08,1800.3C3146.63,1796.27 3147.11,1790.19 3151.16,1786.74C3155.2,1783.29 3161.27,1783.77 3164.72,1787.8C3168.17,1791.84 3167.69,1797.92 3163.65,1801.37Z" style="fill:rgb(255,127,127);"/>
        </g>
        <g transform="matrix(1,0,0,1,0,36)">
            <path d="M3169.43,1831.86C3165.39,1835.31 3159.32,1834.83 3155.87,1830.8C3152.42,1826.76 3152.9,1820.68 3156.94,1817.23C3160.98,1813.78 3167.05,1814.26 3170.5,1818.3C3173.95,1822.33 3173.47,1828.41 3169.43,1831.86Z" style="fill:rgb(255,127,127);"/>
        </g>
        <g transform="matrix(1,0,0,1,0,36)">
            <path d="M3195.69,1844.85C3191.65,1848.3 3185.58,1847.82 3182.13,1843.79C3178.68,1839.75 3179.16,1833.68 3183.2,1830.22C3187.24,1826.77 3193.32,1827.25 3196.77,1831.29C3200.21,1835.33 3199.73,1841.4 3195.69,1844.85Z" style="fill:rgb(255,127,127);"/>
        </g>
        <g transform="matrix(1,0,0,1,0,36)">
            <path d="M3217.06,1820.93C3213.02,1824.39 3206.94,1823.91 3203.49,1819.87C3200.05,1815.83 3200.53,1809.76 3204.57,1806.31C3208.61,1802.86 3214.68,1803.33 3218.13,1807.37C3221.58,1811.41 3221.1,1817.48 3217.06,1820.93Z" style="fill:rgb(255,127,127);"/>
        </g>
        <g transform="matrix(1,0,0,1,0,36)">
            <path d="M3175.21,1862.35C3171.17,1865.8 3165.1,1865.32 3161.65,1861.28C3158.2,1857.24 3158.68,1851.17 3162.72,1847.72C3166.77,1844.27 3172.84,1844.75 3176.29,1848.78C3179.74,1852.82 3179.26,1858.89 3175.21,1862.35Z" style="fill:rgb(255,127,127);"/>
        </g>
        <g transform="matrix(1,0,0,1,0,36)">
            <path d="M3240.66,1807.55C3236.62,1811 3230.55,1810.53 3227.1,1806.49C3223.65,1802.45 3224.13,1796.38 3228.17,1792.93C3232.21,1789.48 3238.28,1789.95 3241.73,1793.99C3245.18,1798.03 3244.7,1804.1 3240.66,1807.55Z" style="fill:rgb(255,127,127);"/>
        </g>
        <g transform="matrix(1,0,0,1,0,36)">
            <path d="M3221.96,1853.99C3217.91,1857.45 3211.84,1856.97 3208.39,1852.93C3204.94,1848.89 3205.42,1842.82 3209.46,1839.37C3213.51,1835.92 3219.58,1836.39 3223.03,1840.43C3226.48,1844.47 3226,1850.54 3221.96,1853.99Z" style="fill:rgb(255,127,127);"/>
        </g>
        <g transform="matrix(1,0,0,1,0,36)">
            <path d="M3293.95,1736.87C3289.58,1740.59 3283.03,1740.08 3279.31,1735.72C3275.58,1731.36 3276.1,1724.8 3280.46,1721.08C3284.83,1717.35 3291.38,1717.87 3295.1,1722.23C3298.83,1726.59 3298.31,1733.14 3293.95,1736.87Z" style="fill:rgb(127,160,255);"/>
        </g>
        <g transform="matrix(1,0,0,1,0,36)">
            <path d="M3319.6,1731.11C3315.24,1734.84 3308.69,1734.33 3304.96,1729.97C3301.24,1725.61 3301.76,1719.05 3306.12,1715.33C3310.48,1711.6 3317.04,1712.11 3320.76,1716.47C3324.48,1720.83 3323.97,1727.39 3319.6,1731.11Z" style="fill:rgb(127,160,255);"/>
        </g>
        <g transform="matrix(1,0,0,1,0,36)">
            <path d="M3307.79,1772.02C3303.43,1775.75 3296.88,1775.24 3293.15,1770.88C3289.43,1766.52 3289.95,1759.96 3294.31,1756.24C3298.67,1752.51 3305.23,1753.02 3308.95,1757.38C3312.67,1761.74 3312.16,1768.3 3307.79,1772.02Z" style="fill:rgb(127,160,255);"/>
        </g>
        <g transform="matrix(1,0,0,1,0,36)">
            <path d="M3271.13,1745.53C3266.77,1749.26 3260.22,1748.74 3256.49,1744.38C3252.77,1740.02 3253.29,1733.47 3257.65,1729.74C3262.01,1726.02 3268.57,1726.53 3272.29,1730.89C3276.02,1735.25 3275.5,1741.8 3271.13,1745.53Z" style="fill:rgb(127,160,255);"/>
        </g>
        <g transform="matrix(1,0,0,1,0,36)">
            <path d="M3277.38,1778.45C3273.02,1782.17 3266.46,1781.66 3262.74,1777.3C3259.02,1772.94 3259.54,1766.38 3263.9,1762.66C3268.26,1758.93 3274.82,1759.45 3278.54,1763.81C3282.26,1768.17 3281.74,1774.72 3277.38,1778.45Z" style="fill:rgb(127,160,255);"/>
        </g>
        <g transform="matrix(1,0,0,1,0,36)">
            <path d="M3297.42,1804.94C3293.06,1808.66 3286.51,1808.15 3282.78,1803.79C3279.06,1799.43 3279.58,1792.87 3283.94,1789.15C3288.3,1785.42 3294.86,1785.94 3298.58,1790.3C3302.31,1794.66 3301.79,1801.21 3297.42,1804.94Z" style="fill:rgb(127,160,255);"/>
        </g>
        <g transform="matrix(1,0,0,1,0,36)">
            <path d="M3337.1,1766.65C3332.74,1770.38 3326.18,1769.87 3322.46,1765.51C3318.74,1761.15 3319.25,1754.59 3323.62,1750.87C3327.98,1747.14 3334.53,1747.65 3338.26,1752.01C3341.98,1756.37 3341.46,1762.93 3337.1,1766.65Z" style="fill:rgb(127,160,255);"/>
        </g>
        <g transform="matrix(1,0,0,1,0,36)">
            <path d="M3275.32,1815.51C3270.96,1819.24 3264.4,1818.73 3260.68,1814.37C3256.95,1810.01 3257.47,1803.45 3261.83,1799.73C3266.2,1796 3272.75,1796.51 3276.48,1800.87C3280.2,1805.23 3279.68,1811.79 3275.32,1815.51Z" style="fill:rgb(127,160,255);"/>
        </g>
        <g transform="matrix(1,0,0,1,0,36)">
            <path d="M3354.27,1748.05C3349.91,1751.78 3343.36,1751.26 3339.63,1746.9C3335.91,1742.54 3336.43,1735.99 3340.79,1732.26C3345.15,1728.54 3351.71,1729.05 3355.43,1733.41C3359.15,1737.77 3358.64,1744.33 3354.27,1748.05Z" style="fill:rgb(127,160,255);"/>
        </g>
        <g transform="matrix(1,0,0,1,0,36)">
            <path d="M3329.93,1798.19C3325.57,1801.91 3319.01,1801.4 3315.29,1797.04C3311.56,1792.68 3312.08,1786.12 3316.45,1782.4C3320.81,1778.67 3327.36,1779.19 3331.09,1783.55C3334.81,1787.91 3334.29,1794.46 3329.93,1798.19Z" style="fill:rgb(127,160,255);"/>
        </g>
        <g transform="matrix(1,0,0,1,0,36)">
            <path d="M2351,1891L2335.5,1923L2320,1891C2327.75,1899 2343.25,1899 2351,1891Z"/>
        </g>
        <g transform="matrix(1,0,0,1,0,36)">
            <path d="M2330,1712.27C2330,1709.36 2332.46,1707 2335.5,1707C2338.53,1707 2341,1709.36 2341,1712.27L2341,1723.86C2341,1726.77 2338.53,1729.14 2335.5,1729.14C2332.46,1729.14 2330,1726.77 2330,1723.86L2330,1712.27ZM2330,1747.05C2330,1744.14 2332.46,1741.77 2335.5,1741.77C2338.53,1741.77 2341,1744.14 2341,1747.05L2341,1770.23C2341,1773.14 2338.53,1775.5 2335.5,1775.5C2332.46,1775.5 2330,1773.14 2330,1770.23L2330,1747.05ZM2330,1793.41C2330,1790.5 2332.46,1788.14 2335.5,1788.14C2338.53,1788.14 2341,1790.5 2341,1793.41L2341,1816.59C2341,1819.5 2338.53,1821.86 2335.5,1821.86C2332.46,1821.86 2330,1819.5 2330,1816.59L2330,1793.41ZM2330,1839.77C2330,1836.86 2332.46,1834.5 2335.5,1834.5C2338.53,1834.5 2341,1836.86 2341,1839.77L2341,1862.95C2341,1865.86 2338.53,1868.23 2335.5,1868.23C2332.46,1868.23 2330,1865.86 2330,1862.95L2330,1839.77ZM2330,1886.13C2330,1883.23 2332.46,1880.86 2335.5,1880.86C2338.53,1880.86 2341,1883.23 2341,1886.13L2341,1897.73C2341,1900.64 2338.53,1903 2335.5,1903C2332.46,1903 2330,1900.64 2330,1897.73L2330,1886.13Z"/>
        </g>
        <g transform="matrix(1,0,0,1,2124.33,2047)">
            <text x="0px" y="0px" style="font-family:'Helvetica';font-size:73px;">… and more!</text>
        </g>
    </g>
</svg>
